<?xml version="1.0" encoding="UTF-8"?>
<svg id="_レイヤー_1" data-name="レイヤー 1" xmlns="http://www.w3.org/2000/svg" viewBox="0 0 1662.99 606.97">
  <defs>
    <style>
      .cls-1, .cls-2, .cls-3 {
        fill: #92c7cf;
      }

      .cls-2 {
        font-family: HiraginoSans-W4-83pv-RKSJ-H, 'Hiragino Sans';
        font-size: 44.02px;
      }

      .cls-4 {
        stroke: #fcfdfd;
        stroke-miterlimit: 10;
        stroke-width: .79px;
      }

      .cls-4, .cls-5 {
        fill: #fcfdfd;
      }

      .cls-6 {
        letter-spacing: 0em;
      }

      .cls-7 {
        letter-spacing: -.21em;
      }

      .cls-8 {
        letter-spacing: -.56em;
      }

      .cls-9 {
        letter-spacing: -.5em;
      }

      .cls-10 {
        letter-spacing: -.1em;
      }

      .cls-11 {
        letter-spacing: -.1em;
      }

      .cls-12 {
        letter-spacing: -.1em;
      }

      .cls-13 {
        letter-spacing: -.09em;
      }

      .cls-14 {
        letter-spacing: -.09em;
      }

      .cls-15 {
        letter-spacing: -.11em;
      }

      .cls-16 {
        letter-spacing: -.11em;
      }

      .cls-17 {
        letter-spacing: -.11em;
      }

      .cls-18 {
        letter-spacing: -.11em;
      }

      .cls-19 {
        letter-spacing: -.1em;
      }

      .cls-20 {
        letter-spacing: -.1em;
      }

      .cls-21 {
        letter-spacing: -.1em;
      }

      .cls-22 {
        letter-spacing: -.1em;
      }

      .cls-23 {
        letter-spacing: -.1em;
      }

      .cls-24 {
        letter-spacing: -.1em;
      }

      .cls-25 {
        letter-spacing: -.1em;
      }

      .cls-26 {
        letter-spacing: -.08em;
      }

      .cls-27 {
        letter-spacing: -.07em;
      }

      .cls-28 {
        letter-spacing: -.09em;
      }

      .cls-29 {
        letter-spacing: -.08em;
      }

      .cls-30 {
        letter-spacing: -.08em;
      }

      .cls-31 {
        letter-spacing: -.09em;
      }

      .cls-32 {
        letter-spacing: -.08em;
      }

      .cls-33 {
        letter-spacing: -.08em;
      }

      .cls-34 {
        letter-spacing: -.09em;
      }

      .cls-35 {
        letter-spacing: -.09em;
      }

      .cls-36 {
        letter-spacing: -.09em;
      }

      .cls-37 {
        letter-spacing: -.09em;
      }

      .cls-38 {
        letter-spacing: -.07em;
      }

      .cls-39 {
        letter-spacing: -.07em;
      }

      .cls-40 {
        letter-spacing: -.08em;
      }

      .cls-41 {
        letter-spacing: -.07em;
      }

      .cls-42 {
        letter-spacing: -.08em;
      }

      .cls-43 {
        letter-spacing: -.06em;
      }

      .cls-44 {
        letter-spacing: -.06em;
      }

      .cls-45 {
        letter-spacing: -.06em;
      }

      .cls-46 {
        letter-spacing: -.06em;
      }

      .cls-47 {
        letter-spacing: -.06em;
      }

      .cls-48 {
        letter-spacing: -.06em;
      }

      .cls-49 {
        letter-spacing: -.19em;
      }

      .cls-50 {
        letter-spacing: -.22em;
      }

      .cls-51 {
        letter-spacing: -.15em;
      }

      .cls-52 {
        letter-spacing: -.17em;
      }

      .cls-53 {
        letter-spacing: -.17em;
      }

      .cls-54 {
        letter-spacing: -.16em;
      }

      .cls-55 {
        letter-spacing: -.17em;
      }

      .cls-56 {
        letter-spacing: -.17em;
      }

      .cls-57 {
        letter-spacing: -.17em;
      }

      .cls-58 {
        letter-spacing: -.17em;
      }

      .cls-59 {
        letter-spacing: -.17em;
      }

      .cls-60 {
        letter-spacing: -.18em;
      }

      .cls-61 {
        letter-spacing: -.13em;
      }

      .cls-62 {
        letter-spacing: -.13em;
      }

      .cls-63 {
        letter-spacing: -.13em;
      }

      .cls-64 {
        letter-spacing: -.14em;
      }

      .cls-65 {
        letter-spacing: -.14em;
      }

      .cls-66 {
        letter-spacing: -.14em;
      }

      .cls-67 {
        letter-spacing: -.14em;
      }

      .cls-68 {
        letter-spacing: -.14em;
      }

      .cls-69 {
        letter-spacing: -.16em;
      }

      .cls-70 {
        letter-spacing: -.16em;
      }

      .cls-71 {
        letter-spacing: -.16em;
      }

      .cls-72 {
        letter-spacing: -.11em;
      }

      .cls-73 {
        letter-spacing: -.11em;
      }

      .cls-74 {
        letter-spacing: -.12em;
      }

      .cls-75 {
        letter-spacing: -.12em;
      }

      .cls-76 {
        letter-spacing: -.11em;
      }

      .cls-77 {
        letter-spacing: -.11em;
      }

      .cls-78 {
        letter-spacing: -.11em;
      }

      .cls-79 {
        letter-spacing: -.12em;
      }

      .cls-80 {
        letter-spacing: -.11em;
      }

      .cls-81 {
        letter-spacing: -.11em;
      }

      .cls-82 {
        letter-spacing: -.12em;
      }

      .cls-83 {
        letter-spacing: -.12em;
      }

      .cls-84 {
        letter-spacing: -.11em;
      }

      .cls-85 {
        letter-spacing: -.12em;
      }

      .cls-86 {
        letter-spacing: -.12em;
      }

      .cls-87 {
        letter-spacing: -.13em;
      }

      .cls-88 {
        letter-spacing: -.02em;
      }

      .cls-89 {
        letter-spacing: -.02em;
      }

      .cls-90 {
        letter-spacing: -.05em;
      }

      .cls-91 {
        letter-spacing: -.05em;
      }

      .cls-92 {
        letter-spacing: -.05em;
      }

      .cls-93 {
        letter-spacing: -.05em;
      }

      .cls-94 {
        letter-spacing: -.06em;
      }

      .cls-95 {
        letter-spacing: -.06em;
      }

      .cls-96 {
        letter-spacing: -.05em;
      }

      .cls-97 {
        letter-spacing: -.05em;
      }

      .cls-98 {
        letter-spacing: -.05em;
      }

      .cls-99 {
        letter-spacing: -.04em;
      }

      .cls-100 {
        letter-spacing: -.04em;
      }

      .cls-101 {
        letter-spacing: -.04em;
      }

      .cls-102 {
        letter-spacing: -.04em;
      }

      .cls-103 {
        letter-spacing: -.04em;
      }

      .cls-104 {
        letter-spacing: -.04em;
      }

      .cls-105 {
        letter-spacing: -.04em;
      }

      .cls-106 {
        letter-spacing: -.04em;
      }

      .cls-107 {
        letter-spacing: -.04em;
      }

      .cls-108 {
        letter-spacing: -.05em;
      }

      .cls-109 {
        letter-spacing: -.03em;
      }

      .cls-110 {
        letter-spacing: -.04em;
      }

      .cls-111 {
        letter-spacing: -.04em;
      }

      .cls-112 {
        letter-spacing: -.03em;
      }

      .cls-3 {
        font-family: HiraginoSans-W1-83pv-RKSJ-H, 'Hiragino Sans';
        font-size: 34.59px;
      }
    </style>
  </defs>
  <text class="cls-3" transform="translate(0 512.02)"><tspan x="0" y="0">栄養</tspan><tspan class="cls-9" x="69.18" y="0">、</tspan><tspan x="86.47" y="0">運動</tspan><tspan class="cls-8" x="155.65" y="0">、</tspan><tspan class="cls-55" x="171" y="0">メ</tspan><tspan class="cls-80" x="199.78" y="0">ン</tspan><tspan class="cls-60" x="230.43" y="0">タ</tspan><tspan class="cls-108" x="258.93" y="0">ル</tspan><tspan class="cls-41" x="291.89" y="0">ヘ</tspan><tspan class="cls-87" x="324.16" y="0">ル</tspan><tspan class="cls-35" x="354.39" y="0">ス</tspan><tspan class="cls-85" x="385.83" y="0">な</tspan><tspan class="cls-27" x="416.1" y="0">ど</tspan><tspan class="cls-9" x="448.13" y="0">、</tspan><tspan x="43.89" y="41.51">健康</tspan><tspan class="cls-99" x="113.07" y="41.51">的</tspan><tspan class="cls-72" x="146.41" y="41.51">な</tspan><tspan class="cls-77" x="177.33" y="41.51">ラ</tspan><tspan class="cls-54" x="208.05" y="41.51">イ</tspan><tspan class="cls-82" x="237.14" y="41.51">フ</tspan><tspan class="cls-73" x="267.47" y="41.51">ス</tspan><tspan class="cls-51" x="298.08" y="41.51">タ</tspan><tspan class="cls-59" x="327.38" y="41.51">イ</tspan><tspan class="cls-39" x="355.91" y="41.51">ル</tspan><tspan class="cls-101" x="388.22" y="41.51">の</tspan><tspan x="35.05" y="83.01">構</tspan><tspan class="cls-90" x="69.64" y="83.01">築</tspan><tspan class="cls-24" x="102.57" y="83.01">を</tspan><tspan class="cls-26" x="133.6" y="83.01">サ</tspan><tspan class="cls-47" x="165.59" y="83.01">ポ</tspan><tspan class="cls-79" x="198" y="83.01">ー</tspan><tspan class="cls-66" x="228.51" y="83.01">ト</tspan><tspan class="cls-18" x="258.25" y="83.01">す</tspan><tspan class="cls-66" x="289.07" y="83.01">る</tspan><tspan class="cls-96" x="318.82" y="83.01">コ</tspan><tspan class="cls-55" x="351.61" y="83.01">ー</tspan><tspan class="cls-94" x="380.38" y="83.01">ス</tspan><tspan class="cls-9" x="413.07" y="83.01">。</tspan></text>
  <text class="cls-2" transform="translate(34.17 449.09)"><tspan x="0" y="0">健</tspan><tspan class="cls-29" x="44.02" y="0">康</tspan><tspan class="cls-61" x="84.3" y="0">と</tspan><tspan class="cls-13" x="122.47" y="0">ラ</tspan><tspan class="cls-64" x="162.31" y="0">イ</tspan><tspan class="cls-16" x="200.17" y="0">フ</tspan><tspan class="cls-36" x="239.48" y="0">ス</tspan><tspan class="cls-19" x="279.58" y="0">タ</tspan><tspan class="cls-70" x="319.02" y="0">イ</tspan><tspan class="cls-88" x="356.13" y="0">ル</tspan></text>
  <text class="cls-3" transform="translate(581.14 512.02)"><tspan class="cls-30" x="0" y="0">デ</tspan><tspan class="cls-42" x="31.65" y="0">ジ</tspan><tspan class="cls-60" x="63.54" y="0">タ</tspan><tspan class="cls-112" x="92.04" y="0">ル</tspan><tspan x="125.66" y="0">疲</tspan><tspan class="cls-111" x="160.25" y="0">労</tspan><tspan class="cls-12" x="193.49" y="0">か</tspan><tspan class="cls-40" x="224.55" y="0">ら</tspan><tspan x="256.47" y="0">解</tspan><tspan class="cls-48" x="291.06" y="0">放</tspan><tspan class="cls-78" x="323.47" y="0">さ</tspan><tspan class="cls-37" x="354.22" y="0">れ</tspan><tspan class="cls-46" x="385.76" y="0">る</tspan><tspan x="418.21" y="0">方</tspan><tspan class="cls-104" x="452.79" y="0">法</tspan><tspan class="cls-21" x="485.96" y="0">や</tspan><tspan class="cls-9" x="516.95" y="0">、</tspan><tspan x="15.2" y="41.51">健康</tspan><tspan class="cls-99" x="84.38" y="41.51">的</tspan><tspan class="cls-32" x="117.72" y="41.51">な</tspan><tspan class="cls-75" x="149.51" y="41.51">ス</tspan><tspan class="cls-49" x="180.05" y="41.51">ク</tspan><tspan class="cls-25" x="208.06" y="41.51">リ</tspan><tspan class="cls-58" x="239.09" y="41.51">ー</tspan><tspan class="cls-80" x="267.63" y="41.51">ン</tspan><tspan class="cls-51" x="298.27" y="41.51">タ</tspan><tspan class="cls-7" x="327.57" y="41.51">イ</tspan><tspan class="cls-31" x="354.79" y="41.51">ム</tspan><tspan class="cls-101" x="386.4" y="41.51">の</tspan><tspan x="419.71" y="41.51">達</tspan><tspan class="cls-104" x="454.3" y="41.51">成</tspan><tspan class="cls-106" x="487.47" y="41.51">や</tspan><tspan x="66.41" y="83.01">管</tspan><tspan class="cls-103" x="101" y="83.01">理</tspan><tspan class="cls-43" x="134.2" y="83.01">に</tspan><tspan x="166.75" y="83.01">焦</tspan><tspan class="cls-90" x="201.34" y="83.01">点</tspan><tspan class="cls-11" x="234.27" y="83.01">を</tspan><tspan class="cls-34" x="265.43" y="83.01">当</tspan><tspan class="cls-76" x="296.84" y="83.01">て</tspan><tspan class="cls-87" x="327.55" y="83.01">た</tspan><tspan class="cls-98" x="357.78" y="83.01">コ</tspan><tspan class="cls-57" x="390.57" y="83.01">ー</tspan><tspan class="cls-95" x="419.35" y="83.01">ス</tspan><tspan class="cls-9" x="452.03" y="83.01">。</tspan></text>
  <text class="cls-2" transform="translate(675.12 449.09)"><tspan class="cls-44" x="0" y="0">デ</tspan><tspan class="cls-93" x="41.51" y="0">ジ</tspan><tspan class="cls-70" x="83.16" y="0">タ</tspan><tspan class="cls-97" x="120.27" y="0">ル</tspan><tspan class="cls-81" x="162" y="0">デ</tspan><tspan class="cls-53" x="201.09" y="0">ト</tspan><tspan class="cls-68" x="237.58" y="0">ッ</tspan><tspan class="cls-74" x="275.49" y="0">ク</tspan><tspan class="cls-107" x="314.36" y="0">ス</tspan></text>
  <circle class="cls-1" cx="849.01" cy="171.89" r="171.89"/>
  <text class="cls-3" transform="translate(1266.06 512.02)"><tspan x="0" y="0">環</tspan><tspan class="cls-89" x="34.59" y="0">境</tspan><tspan class="cls-38" x="68.48" y="0">へ</tspan><tspan class="cls-101" x="100.72" y="0">の</tspan><tspan x="134.03" y="0">影</tspan><tspan class="cls-92" x="168.62" y="0">響</tspan><tspan class="cls-45" x="201.54" y="0">を</tspan><tspan x="233.99" y="0">考</tspan><tspan class="cls-33" x="268.58" y="0">慮</tspan><tspan class="cls-83" x="300.29" y="0">し</tspan><tspan class="cls-91" x="330.63" y="0">た</tspan><tspan x="-13.09" y="41.51">持続可</tspan><tspan class="cls-100" x="90.67" y="41.51">能</tspan><tspan class="cls-109" x="124.02" y="41.51">な</tspan><tspan class="cls-6" x="157.46" y="41.51">生</tspan><tspan class="cls-110" x="192.05" y="41.51">活</tspan><tspan class="cls-84" x="225.33" y="41.51">の</tspan><tspan class="cls-69" x="255.97" y="41.51">ヒ</tspan><tspan class="cls-52" x="285.13" y="41.51">ン</tspan><tspan class="cls-67" x="313.77" y="41.51">ト</tspan><tspan class="cls-105" x="343.58" y="41.51">や</tspan><tspan class="cls-22" x="-35.76" y="83.01">プ</tspan><tspan class="cls-62" x="-4.74" y="83.01">ラ</tspan><tspan class="cls-63" x="25.25" y="83.01">ク</tspan><tspan class="cls-56" x="55.2" y="83.01">テ</tspan><tspan class="cls-50" x="83.98" y="83.01">ィ</tspan><tspan class="cls-23" x="110.96" y="83.01">ス</tspan><tspan class="cls-45" x="141.98" y="83.01">を</tspan><tspan x="174.43" y="83.01">紹</tspan><tspan class="cls-102" x="209.02" y="83.01">介</tspan><tspan class="cls-17" x="242.12" y="83.01">す</tspan><tspan class="cls-65" x="272.94" y="83.01">る</tspan><tspan class="cls-98" x="302.68" y="83.01">コ</tspan><tspan class="cls-57" x="335.47" y="83.01">ー</tspan><tspan class="cls-95" x="364.25" y="83.01">ス</tspan></text>
  <text class="cls-2" transform="translate(1251.06 449.09)"><tspan class="cls-14" x="0" y="0">ラ</tspan><tspan class="cls-64" x="39.84" y="0">イ</tspan><tspan class="cls-15" x="77.7" y="0">フ</tspan><tspan class="cls-36" x="117.01" y="0">ス</tspan><tspan class="cls-20" x="157.11" y="0">タ</tspan><tspan class="cls-71" x="196.56" y="0">イ</tspan><tspan class="cls-86" x="233.67" y="0">ル</tspan><tspan class="cls-10" x="272.19" y="0">ア</tspan><tspan class="cls-20" x="311.81" y="0">ー</tspan><tspan class="cls-28" x="351.25" y="0">ト</tspan></text>
  <circle class="cls-1" cx="1447.84" cy="171.89" r="171.89"/>
  <g>
    <polygon class="cls-5" points="1538.35 181.92 1538.35 283.77 1474.42 283.77 1474.42 220.12 1421.26 220.12 1421.26 283.77 1357.33 283.77 1357.33 181.92 1447.84 111.04 1538.35 181.92"/>
    <polygon class="cls-5" points="1317.78 156.16 1447.84 52.65 1577.9 156.16 1562.76 178.05 1447.84 86.58 1332.92 178.05 1317.78 156.16"/>
    <polygon class="cls-5" points="1541.24 42.09 1541.24 108.33 1509.09 82.73 1509.09 42.09 1541.24 42.09"/>
  </g>
  <g>
    <g>
      <path class="cls-5" d="M758.23,263.38h89.48c3.85,0,6.98-3.13,6.98-6.98v-58.01c0-3.85-3.13-6.98-6.98-6.98h-89.48c-3.85,0-6.98,3.13-6.98,6.98v58.02c0,3.85,3.13,6.98,6.98,6.98ZM762.89,202.5h80.17v49.8h-80.17v-49.8Z"/>
      <path class="cls-5" d="M743.04,270.55v5.07c0,3.25,2.64,5.89,5.89,5.89h108.09c3.25,0,5.89-2.64,5.89-5.89v-5.07h-119.86Z"/>
    </g>
    <polygon class="cls-5" points="911.59 59.4 899 46.8 850.22 95.58 801.44 46.8 788.84 59.4 837.62 108.18 788.84 156.96 801.44 169.55 850.22 120.77 899 169.55 911.59 156.96 862.81 108.18 911.59 59.4"/>
    <path class="cls-5" d="M927.55,189.87h-37.75c-5.95,0-10.78,4.82-10.78,10.78v64.74c0,9.52,7.72,17.24,17.24,17.24h24.82c9.52,0,17.24-7.72,17.24-17.24v-64.74c0-5.95-4.82-10.78-10.78-10.78ZM908.67,277.06c-1.47,0-2.66-1.19-2.66-2.66s1.19-2.66,2.66-2.66,2.66,1.19,2.66,2.66-1.19,2.66-2.66,2.66ZM901.83,193.93h13.68c.77,0,1.39.63,1.39,1.39s-.62,1.39-1.39,1.39h-13.68c-.77,0-1.39-.63-1.39-1.39,0-.77.62-1.39,1.39-1.39ZM885.1,265.39v-62.59h47.14v62.59c0,.7-.07,1.38-.19,2.04h-46.75c-.12-.66-.19-1.34-.19-2.04Z"/>
  </g>
  <g>
    <circle class="cls-1" cx="232.71" cy="171.89" r="171.89"/>
    <path class="cls-5" d="M309.01,66.57c-10.51,0-19.02,10.51-19.02,22.38,0,7.22,3.4,13.59,7.55,17.56,3.64,3.48,5.88,6.17,6.33,11.99v38.37c0,2.66,2.16,4.82,4.82,4.82h.65c2.66,0,4.82-2.16,4.82-4.82v-38.37c.45-5.82,2.69-8.5,6.33-11.99,4.15-3.97,7.55-10.33,7.55-17.56,0-11.87-8.52-22.38-19.02-22.38Z"/>
    <path class="cls-5" d="M274.95,71.13v20.32c0,1.3-1.05,2.35-2.35,2.35h-.63c-1.29,0-2.35-1.05-2.35-2.35v-20.41c0-3.35-2.25-4.35-4.42-4.35s-4.41,1-4.41,4.35v20.41c0,1.3-1.05,2.35-2.35,2.35h-.63c-1.3,0-2.35-1.05-2.35-2.35v-20.32c0-5.99-8.55-5.79-8.55.07v19.4c-.04,10.78,2.53,13.57,6.78,16.93,3.43,2.71,6.35,4.25,6.35,10.97v38.37c0,2.66,2.16,4.82,4.82,4.82h.65c2.66,0,4.82-2.16,4.82-4.82v-38.37c0-6.72,2.93-8.26,6.35-10.97,4.25-3.36,6.83-6.15,6.79-16.93v-19.4c0-5.86-8.55-6.06-8.55-.07Z"/>
    <path class="cls-4" d="M237.69,186.77c6.42,0,11.63-5.21,11.63-11.63s-5.21-11.63-11.63-11.63-11.63,5.21-11.63,11.63c0,6.42,5.21,11.63,11.63,11.63Z"/>
    <path class="cls-4" d="M269.3,221.51l-13.32-7-5.61-11.53c-2.83-5.82-8.25-9.95-14.62-11.13l-5.78-1.07c-2.9-.54-5.91-.15-8.58,1.11l-16.82,7.94c-1.87.88-3.34,2.42-4.16,4.31l-7.48,17.47c-.48,1.11-.48,2.36-.03,3.48.46,1.12,1.35,2.01,2.46,2.46l.17.07c2.23.91,4.78-.09,5.79-2.28l6.87-14.87,10.87-3.51-10.77,47.86-10.49,26.15c-.58,1.45-.52,3.08.18,4.47.69,1.4,1.94,2.44,3.45,2.86l.45.13c2.41.67,4.97-.37,6.23-2.54l12.43-21.47,7.41-14.7,13.52,14.92,9.98,21.15c1.13,2.38,3.79,3.63,6.34,2.97l.11-.03c1.48-.38,2.73-1.37,3.46-2.72.72-1.35.85-2.94.35-4.39l-7.35-21.29c-1.03-2.99-2.56-5.79-4.52-8.28l-11.93-15.77,4.38-22.76,5.65,7.18c.7.89,1.6,1.6,2.63,2.06l14.86,6.71c1.07.48,2.3.51,3.4.08,1.1-.43,1.97-1.29,2.42-2.38l.05-.11c.87-2.08,0-4.49-2-5.54Z"/>
    <path class="cls-5" d="M152.59,64.1c14.35.28,21.37,10.43,22.93,19.66,1.56-9.23,8.58-19.39,22.93-19.66,13.23-.25,24.17,9.92,24.17,28.49,0,23.84-26.97,34.85-45.41,52.66-.64.62-.49.6-.49.6-.3.37-.74.59-1.2.59h0s0,0,0,0h0c-.46,0-.89-.22-1.2-.59,0,0,.15.02-.49-.6-18.44-17.81-45.41-28.82-45.41-52.66,0-18.57,10.94-28.75,24.17-28.49Z"/>
  </g>
</svg>