<?xml version="1.0" encoding="UTF-8"?>
<svg id="_レイヤー_1" data-name="レイヤー 1" xmlns="http://www.w3.org/2000/svg" viewBox="0 0 1591.81 2014.86">
  <defs>
    <style>
      .cls-1 {
        letter-spacing: 0em;
      }

      .cls-2, .cls-3, .cls-4 {
        fill: #92c7cf;
      }

      .cls-5 {
        letter-spacing: .34em;
      }

      .cls-3 {
        font-family: HiraginoSans-W4-83pv-RKSJ-H, 'Hiragino Sans';
        font-size: 43.86px;
      }

      .cls-6 {
        letter-spacing: 0em;
      }

      .cls-7 {
        font-family: Arial-Black, 'Arial Black';
        font-size: 45.92px;
        font-weight: 800;
      }

      .cls-7, .cls-8 {
        fill: #fcfdfd;
      }

      .cls-9 {
        letter-spacing: -.22em;
      }

      .cls-10 {
        letter-spacing: -.22em;
      }

      .cls-11 {
        letter-spacing: -.24em;
      }

      .cls-12 {
        letter-spacing: -.24em;
      }

      .cls-13 {
        letter-spacing: -.5em;
      }

      .cls-14 {
        letter-spacing: -.5em;
      }

      .cls-15 {
        letter-spacing: -.53em;
      }

      .cls-16 {
        letter-spacing: -.55em;
      }

      .cls-17 {
        letter-spacing: -.55em;
      }

      .cls-18 {
        letter-spacing: -.5em;
      }

      .cls-19 {
        letter-spacing: -.1em;
      }

      .cls-20 {
        letter-spacing: -.1em;
      }

      .cls-21 {
        letter-spacing: -.1em;
      }

      .cls-22 {
        letter-spacing: -.1em;
      }

      .cls-23 {
        letter-spacing: -.1em;
      }

      .cls-24 {
        letter-spacing: -.09em;
      }

      .cls-25 {
        letter-spacing: -.1em;
      }

      .cls-26 {
        letter-spacing: -.11em;
      }

      .cls-27 {
        letter-spacing: -.11em;
      }

      .cls-28 {
        letter-spacing: -.11em;
      }

      .cls-29 {
        letter-spacing: -.1em;
      }

      .cls-30 {
        letter-spacing: -.1em;
      }

      .cls-31 {
        letter-spacing: -.08em;
      }

      .cls-32 {
        letter-spacing: -.07em;
      }

      .cls-33 {
        letter-spacing: -.07em;
      }

      .cls-34 {
        letter-spacing: -.08em;
      }

      .cls-35 {
        letter-spacing: -.08em;
      }

      .cls-36 {
        letter-spacing: -.08em;
      }

      .cls-37 {
        letter-spacing: -.08em;
      }

      .cls-38 {
        letter-spacing: -.08em;
      }

      .cls-39 {
        letter-spacing: -.08em;
      }

      .cls-40 {
        letter-spacing: -.09em;
      }

      .cls-41 {
        letter-spacing: -.09em;
      }

      .cls-42 {
        letter-spacing: -.09em;
      }

      .cls-43 {
        letter-spacing: -.09em;
      }

      .cls-44 {
        letter-spacing: -.09em;
      }

      .cls-45 {
        letter-spacing: -.09em;
      }

      .cls-46 {
        letter-spacing: -.06em;
      }

      .cls-47 {
        letter-spacing: -.06em;
      }

      .cls-48 {
        letter-spacing: -.07em;
      }

      .cls-49 {
        letter-spacing: -.07em;
      }

      .cls-50 {
        letter-spacing: -.07em;
      }

      .cls-51 {
        letter-spacing: -.06em;
      }

      .cls-52 {
        letter-spacing: -.08em;
      }

      .cls-53 {
        letter-spacing: -.08em;
      }

      .cls-54 {
        letter-spacing: -.08em;
      }

      .cls-55 {
        letter-spacing: -.08em;
      }

      .cls-56 {
        letter-spacing: -.08em;
      }

      .cls-57 {
        letter-spacing: -.07em;
      }

      .cls-58 {
        letter-spacing: -.07em;
      }

      .cls-59 {
        letter-spacing: -.07em;
      }

      .cls-60 {
        letter-spacing: -.05em;
      }

      .cls-61 {
        letter-spacing: -.05em;
      }

      .cls-62 {
        letter-spacing: -.06em;
      }

      .cls-63 {
        letter-spacing: -.06em;
      }

      .cls-64 {
        letter-spacing: -.06em;
      }

      .cls-65 {
        letter-spacing: -.06em;
      }

      .cls-66 {
        letter-spacing: -.06em;
      }

      .cls-67 {
        letter-spacing: -.06em;
      }

      .cls-68 {
        letter-spacing: -.06em;
      }

      .cls-69 {
        letter-spacing: -.06em;
      }

      .cls-70 {
        letter-spacing: -.06em;
      }

      .cls-71 {
        letter-spacing: -.06em;
      }

      .cls-72 {
        letter-spacing: -.06em;
      }

      .cls-73 {
        letter-spacing: -.2em;
      }

      .cls-74 {
        letter-spacing: -.15em;
      }

      .cls-75 {
        letter-spacing: -.15em;
      }

      .cls-76 {
        letter-spacing: -.15em;
      }

      .cls-77 {
        letter-spacing: -.15em;
      }

      .cls-78 {
        letter-spacing: -.16em;
      }

      .cls-79 {
        letter-spacing: -.16em;
      }

      .cls-80 {
        letter-spacing: -.16em;
      }

      .cls-81 {
        letter-spacing: -.16em;
      }

      .cls-82 {
        letter-spacing: -.16em;
      }

      .cls-83 {
        letter-spacing: -.16em;
      }

      .cls-84 {
        letter-spacing: -.15em;
      }

      .cls-85 {
        letter-spacing: -.16em;
      }

      .cls-86 {
        letter-spacing: -.17em;
      }

      .cls-87 {
        letter-spacing: -.17em;
      }

      .cls-88 {
        letter-spacing: -.17em;
      }

      .cls-89 {
        letter-spacing: -.16em;
      }

      .cls-90 {
        letter-spacing: -.16em;
      }

      .cls-91 {
        letter-spacing: -.17em;
      }

      .cls-92 {
        letter-spacing: -.17em;
      }

      .cls-93 {
        letter-spacing: -.17em;
      }

      .cls-94 {
        letter-spacing: -.17em;
      }

      .cls-95 {
        letter-spacing: -.18em;
      }

      .cls-96 {
        letter-spacing: -.17em;
      }

      .cls-97 {
        letter-spacing: -.18em;
      }

      .cls-98 {
        letter-spacing: -.18em;
      }

      .cls-99 {
        letter-spacing: -.12em;
      }

      .cls-100 {
        letter-spacing: -.13em;
      }

      .cls-101 {
        letter-spacing: -.13em;
      }

      .cls-102 {
        letter-spacing: -.12em;
      }

      .cls-103 {
        letter-spacing: -.13em;
      }

      .cls-104 {
        letter-spacing: -.13em;
      }

      .cls-105 {
        letter-spacing: -.14em;
      }

      .cls-106 {
        letter-spacing: -.14em;
      }

      .cls-107 {
        letter-spacing: -.14em;
      }

      .cls-108 {
        letter-spacing: -.14em;
      }

      .cls-109 {
        letter-spacing: -.14em;
      }

      .cls-110 {
        letter-spacing: -.13em;
      }

      .cls-111 {
        letter-spacing: -.14em;
      }

      .cls-112 {
        letter-spacing: -.14em;
      }

      .cls-113 {
        letter-spacing: -.14em;
      }

      .cls-114 {
        letter-spacing: -.14em;
      }

      .cls-115 {
        letter-spacing: -.14em;
      }

      .cls-116 {
        letter-spacing: -.14em;
      }

      .cls-117 {
        letter-spacing: -.14em;
      }

      .cls-118 {
        letter-spacing: -.15em;
      }

      .cls-119 {
        letter-spacing: -.14em;
      }

      .cls-120 {
        letter-spacing: -.15em;
      }

      .cls-121 {
        letter-spacing: -.15em;
      }

      .cls-122 {
        letter-spacing: -.16em;
      }

      .cls-123 {
        letter-spacing: -.16em;
      }

      .cls-124 {
        letter-spacing: -.16em;
      }

      .cls-125 {
        letter-spacing: -.14em;
      }

      .cls-126 {
        letter-spacing: -.11em;
      }

      .cls-127 {
        letter-spacing: -.11em;
      }

      .cls-128 {
        letter-spacing: -.1em;
      }

      .cls-129 {
        letter-spacing: -.11em;
      }

      .cls-130 {
        letter-spacing: -.12em;
      }

      .cls-131 {
        letter-spacing: -.12em;
      }

      .cls-132 {
        letter-spacing: -.12em;
      }

      .cls-133 {
        letter-spacing: -.11em;
      }

      .cls-134 {
        letter-spacing: -.11em;
      }

      .cls-135 {
        letter-spacing: -.11em;
      }

      .cls-136 {
        letter-spacing: -.11em;
      }

      .cls-137 {
        letter-spacing: -.12em;
      }

      .cls-138 {
        letter-spacing: -.11em;
      }

      .cls-139 {
        letter-spacing: -.11em;
      }

      .cls-140 {
        letter-spacing: -.11em;
      }

      .cls-141 {
        letter-spacing: -.11em;
      }

      .cls-142 {
        letter-spacing: -.11em;
      }

      .cls-143 {
        letter-spacing: -.12em;
      }

      .cls-144 {
        letter-spacing: -.12em;
      }

      .cls-145 {
        letter-spacing: -.13em;
      }

      .cls-146 {
        letter-spacing: -.13em;
      }

      .cls-147 {
        letter-spacing: -.02em;
      }

      .cls-148 {
        letter-spacing: -.03em;
      }

      .cls-149 {
        letter-spacing: -.02em;
      }

      .cls-150 {
        letter-spacing: -.01em;
      }

      .cls-151 {
        letter-spacing: -.02em;
      }

      .cls-152 {
        letter-spacing: -.05em;
      }

      .cls-153 {
        letter-spacing: -.05em;
      }

      .cls-154 {
        letter-spacing: -.05em;
      }

      .cls-155 {
        letter-spacing: -.05em;
      }

      .cls-156 {
        letter-spacing: -.05em;
      }

      .cls-157 {
        letter-spacing: -.05em;
      }

      .cls-158 {
        letter-spacing: -.05em;
      }

      .cls-159 {
        letter-spacing: -.06em;
      }

      .cls-160 {
        letter-spacing: -.06em;
      }

      .cls-161 {
        letter-spacing: -.06em;
      }

      .cls-162 {
        letter-spacing: -.05em;
      }

      .cls-163 {
        letter-spacing: -.05em;
      }

      .cls-164 {
        letter-spacing: -.05em;
      }

      .cls-165 {
        letter-spacing: -.04em;
      }

      .cls-166 {
        letter-spacing: -.04em;
      }

      .cls-167 {
        letter-spacing: -.04em;
      }

      .cls-168 {
        letter-spacing: -.04em;
      }

      .cls-169 {
        letter-spacing: -.04em;
      }

      .cls-170 {
        letter-spacing: -.04em;
      }

      .cls-171 {
        letter-spacing: -.04em;
      }

      .cls-172 {
        letter-spacing: -.04em;
      }

      .cls-173 {
        letter-spacing: -.04em;
      }

      .cls-174 {
        letter-spacing: -.04em;
      }

      .cls-175 {
        letter-spacing: -.04em;
      }

      .cls-176 {
        letter-spacing: -.04em;
      }

      .cls-177 {
        letter-spacing: -.04em;
      }

      .cls-178 {
        letter-spacing: -.04em;
      }

      .cls-179 {
        letter-spacing: -.05em;
      }

      .cls-180 {
        letter-spacing: -.05em;
      }

      .cls-181 {
        letter-spacing: -.04em;
      }

      .cls-182 {
        letter-spacing: -.04em;
      }

      .cls-183 {
        letter-spacing: -.04em;
      }

      .cls-184 {
        letter-spacing: -.04em;
      }

      .cls-185 {
        letter-spacing: -.04em;
      }

      .cls-186 {
        letter-spacing: -.03em;
      }

      .cls-187 {
        letter-spacing: -.03em;
      }

      .cls-188 {
        letter-spacing: -.03em;
      }

      .cls-189 {
        letter-spacing: -.03em;
      }

      .cls-190 {
        letter-spacing: -.04em;
      }

      .cls-191 {
        letter-spacing: -.04em;
      }

      .cls-192 {
        letter-spacing: -.03em;
      }

      .cls-193 {
        letter-spacing: -.03em;
      }

      .cls-194 {
        letter-spacing: -.03em;
      }

      .cls-195 {
        letter-spacing: -.03em;
      }

      .cls-4 {
        font-family: HiraginoSans-W1-83pv-RKSJ-H, 'Hiragino Sans';
        font-size: 34.46px;
      }

      .cls-196 {
        letter-spacing: .08em;
      }
    </style>
  </defs>
  <text class="cls-3" transform="translate(281.33 1147.22)"><tspan class="cls-121" x="0" y="0">マ</tspan><tspan class="cls-101" x="37.42" y="0">イ</tspan><tspan class="cls-120" x="75.45" y="0">ン</tspan><tspan class="cls-111" x="112.86" y="0">ド</tspan><tspan class="cls-107" x="150.76" y="0">フ</tspan><tspan class="cls-67" x="188.39" y="0">ル</tspan><tspan class="cls-53" x="229.76" y="0">ネ</tspan><tspan class="cls-182" x="270.29" y="0">ス</tspan></text>
  <text class="cls-4" transform="translate(169.88 1218.76)"><tspan class="cls-88" x="0" y="0">ス</tspan><tspan class="cls-95" x="28.5" y="0">ト</tspan><tspan class="cls-73" x="56.8" y="0">レ</tspan><tspan class="cls-161" x="84.37" y="0">ス</tspan><tspan class="cls-1" x="116.94" y="0">管</tspan><tspan class="cls-174" x="151.4" y="0">理</tspan><tspan class="cls-125" x="184.45" y="0">や</tspan><tspan class="cls-98" x="213.99" y="0">リ</tspan><tspan class="cls-86" x="242.38" y="0">ラ</tspan><tspan class="cls-90" x="270.99" y="0">ッ</tspan><tspan class="cls-115" x="299.97" y="0">ク</tspan><tspan class="cls-25" x="329.65" y="0">ス</tspan><tspan class="cls-135" x="360.73" y="0">テ</tspan><tspan class="cls-115" x="391.37" y="0">ク</tspan><tspan class="cls-119" x="421.04" y="0">ニ</tspan><tspan class="cls-89" x="450.55" y="0">ッ</tspan><tspan class="cls-116" x="479.53" y="0">ク</tspan><tspan class="cls-69" x="509.2" y="0">を</tspan><tspan class="cls-179" x="13.78" y="41.36">学</tspan><tspan class="cls-38" x="46.66" y="41.36">び</tspan><tspan class="cls-16" x="78.27" y="41.36">、</tspan><tspan class="cls-61" x="93.64" y="41.36">日</tspan><tspan class="cls-1" x="126.27" y="41.36">常生</tspan><tspan class="cls-178" x="195.2" y="41.36">活</tspan><tspan class="cls-131" x="228.29" y="41.36">に</tspan><tspan class="cls-79" x="258.72" y="41.36">マ</tspan><tspan class="cls-122" x="287.57" y="41.36">イ</tspan><tspan class="cls-83" x="316.65" y="41.36">ン</tspan><tspan class="cls-81" x="345.47" y="41.36">ド</tspan><tspan class="cls-94" x="374.31" y="41.36">フ</tspan><tspan class="cls-31" x="402.95" y="41.36">ル</tspan><tspan class="cls-41" x="434.83" y="41.36">ネ</tspan><tspan class="cls-30" x="466.16" y="41.36">ス</tspan><tspan class="cls-69" x="497.07" y="41.36">を</tspan><tspan class="cls-42" x="13.63" y="82.71">取</tspan><tspan class="cls-23" x="44.85" y="82.71">り</tspan><tspan class="cls-195" x="76.01" y="82.71">入</tspan><tspan class="cls-148" x="109.51" y="82.71">れ</tspan><tspan class="cls-14" x="143.11" y="82.71">、</tspan><tspan x="160.34" y="82.71">心</tspan><tspan class="cls-57" x="194.81" y="82.71">地</tspan><tspan class="cls-145" x="226.75" y="82.71">よ</tspan><tspan class="cls-138" x="256.88" y="82.71">い</tspan><tspan class="cls-141" x="287.44" y="82.71">ラ</tspan><tspan class="cls-89" x="318.05" y="82.71">イ</tspan><tspan class="cls-143" x="347.03" y="82.71">フ</tspan><tspan class="cls-130" x="377.26" y="82.71">ス</tspan><tspan class="cls-77" x="407.76" y="82.71">タ</tspan><tspan class="cls-97" x="436.95" y="82.71">イ</tspan><tspan class="cls-55" x="465.38" y="82.71">ル</tspan><tspan class="cls-70" x="497.23" y="82.71">を</tspan><tspan class="cls-128" x="187.19" y="124.07">築</tspan><tspan class="cls-10" x="218.04" y="124.07">く</tspan><tspan class="cls-162" x="244.85" y="124.07">コ</tspan><tspan class="cls-91" x="277.52" y="124.07">ー</tspan><tspan class="cls-161" x="306.19" y="124.07">ス</tspan><tspan class="cls-13" x="338.76" y="124.07">。</tspan></text>
  <text class="cls-3" transform="translate(195.84 1849.67)"><tspan x="0" y="0">感</tspan><tspan class="cls-193" x="43.86" y="0">情の</tspan><tspan x="129.13" y="0">知</tspan><tspan class="cls-34" x="173" y="0">覚</tspan><tspan class="cls-112" x="213.13" y="0">と</tspan><tspan class="cls-29" x="251.03" y="0">コ</tspan><tspan class="cls-75" x="290.33" y="0">ン</tspan><tspan class="cls-137" x="327.57" y="0">ト</tspan><tspan class="cls-187" x="366.26" y="0">ロ</tspan><tspan class="cls-64" x="408.67" y="0">ー</tspan><tspan class="cls-147" x="450.08" y="0">ル</tspan></text>
  <text class="cls-4" transform="translate(134.71 1920.26)"><tspan x="0" y="0">感</tspan><tspan class="cls-154" x="34.46" y="0">情</tspan><tspan class="cls-70" x="67.27" y="0">を</tspan><tspan class="cls-1" x="99.6" y="0">理</tspan><tspan class="cls-37" x="134.06" y="0">解</tspan><tspan class="cls-33" x="165.67" y="0">し</tspan><tspan class="cls-15" x="197.58" y="0">、</tspan><tspan class="cls-44" x="213.64" y="0">ポ</tspan><tspan class="cls-46" x="244.9" y="0">ジ</tspan><tspan class="cls-91" x="277.26" y="0">テ</tspan><tspan class="cls-12" x="305.94" y="0">ィ</tspan><tspan class="cls-191" x="332.27" y="0">ブ</tspan><tspan class="cls-189" x="365.39" y="0">な</tspan><tspan class="cls-1" x="398.71" y="0">感</tspan><tspan class="cls-155" x="433.18" y="0">情</tspan><tspan class="cls-69" x="465.99" y="0">を</tspan><tspan x="498.31" y="0">増</tspan><tspan class="cls-37" x="532.78" y="0">進</tspan><tspan class="cls-33" x="564.38" y="0">し</tspan><tspan class="cls-14" x="596.29" y="0">、</tspan><tspan class="cls-24" x="41.39" y="41.36">ネ</tspan><tspan class="cls-52" x="72.58" y="41.36">ガ</tspan><tspan class="cls-91" x="104.39" y="41.36">テ</tspan><tspan class="cls-12" x="133.06" y="41.36">ィ</tspan><tspan class="cls-191" x="159.4" y="41.36">ブ</tspan><tspan class="cls-189" x="192.52" y="41.36">な</tspan><tspan x="225.84" y="41.36">感</tspan><tspan class="cls-154" x="260.31" y="41.36">情</tspan><tspan class="cls-105" x="293.12" y="41.36">を</tspan><tspan class="cls-110" x="322.75" y="41.36">コ</tspan><tspan class="cls-87" x="352.84" y="41.36">ン</tspan><tspan class="cls-108" x="381.38" y="41.36">ト</tspan><tspan class="cls-183" x="410.95" y="41.36">ロ</tspan><tspan class="cls-36" x="443.9" y="41.36">ー</tspan><tspan class="cls-48" x="475.46" y="41.36">ル</tspan><tspan class="cls-28" x="507.48" y="41.36">す</tspan><tspan class="cls-69" x="538.19" y="41.36">る</tspan><tspan class="cls-113" x="112.66" y="82.71">ス</tspan><tspan class="cls-104" x="142.37" y="82.71">キ</tspan><tspan class="cls-55" x="172.35" y="82.71">ル</tspan><tspan class="cls-126" x="204.2" y="82.71">を</tspan><tspan class="cls-57" x="235.01" y="82.71">身</tspan><tspan class="cls-26" x="266.96" y="82.71">に</tspan><tspan class="cls-37" x="297.73" y="82.71">つ</tspan><tspan class="cls-124" x="329.34" y="82.71">け</tspan><tspan class="cls-105" x="358.43" y="82.71">る</tspan><tspan class="cls-164" x="388.06" y="82.71">コ</tspan><tspan class="cls-91" x="420.74" y="82.71">ー</tspan><tspan class="cls-161" x="449.41" y="82.71">ス</tspan><tspan class="cls-14" x="481.98" y="82.71">。</tspan></text>
  <text class="cls-3" transform="translate(920.04 1139.07)"><tspan class="cls-120" x="0" y="0">マ</tspan><tspan class="cls-101" x="37.42" y="0">イ</tspan><tspan class="cls-118" x="75.45" y="0">ン</tspan><tspan class="cls-112" x="112.86" y="0">ド</tspan><tspan class="cls-109" x="150.76" y="0">フ</tspan><tspan class="cls-66" x="188.39" y="0">ル</tspan><tspan class="cls-56" x="229.76" y="0">ネ</tspan><tspan class="cls-103" x="270.29" y="0">ス</tspan><tspan class="cls-139" x="308.49" y="0">と</tspan><tspan class="cls-58" x="347.4" y="0">自</tspan><tspan class="cls-149" x="388.1" y="0">己</tspan><tspan x="430.96" y="0">観察</tspan></text>
  <text class="cls-4" transform="translate(1014.19 1210.62)"><tspan class="cls-78" x="0" y="0">マ</tspan><tspan class="cls-123" x="28.85" y="0">イ</tspan><tspan class="cls-82" x="57.93" y="0">ン</tspan><tspan class="cls-80" x="86.75" y="0">ド</tspan><tspan class="cls-93" x="115.59" y="0">フ</tspan><tspan class="cls-31" x="144.23" y="0">ル</tspan><tspan class="cls-41" x="176.11" y="0">ネ</tspan><tspan class="cls-160" x="207.44" y="0">ス</tspan><tspan x="240.01" y="0">瞑</tspan><tspan class="cls-22" x="274.47" y="0">想</tspan><tspan class="cls-35" x="305.45" y="0">と</tspan><tspan class="cls-19" x="-18.61" y="41.36">自</tspan><tspan class="cls-186" x="12.41" y="41.36">己</tspan><tspan x="45.7" y="41.36">観</tspan><tspan class="cls-190" x="80.16" y="41.36">察</tspan><tspan class="cls-165" x="113.32" y="41.36">の</tspan><tspan x="146.51" y="41.36">実</tspan><tspan class="cls-154" x="180.97" y="41.36">践</tspan><tspan class="cls-70" x="213.78" y="41.36">を</tspan><tspan class="cls-37" x="246.11" y="41.36">通</tspan><tspan class="cls-99" x="277.71" y="41.36">じ</tspan><tspan class="cls-138" x="308.04" y="41.36">て</tspan><tspan class="cls-18" x="338.61" y="41.36">、</tspan><tspan class="cls-150" x="13.18" y="82.71">内</tspan><tspan class="cls-190" x="47.13" y="82.71">面</tspan><tspan class="cls-170" x="80.28" y="82.71">の</tspan><tspan class="cls-177" x="113.47" y="82.71">声</tspan><tspan class="cls-62" x="146.56" y="82.71">に</tspan><tspan class="cls-154" x="178.99" y="82.71">耳</tspan><tspan class="cls-70" x="211.8" y="82.71">を</tspan><tspan class="cls-185" x="244.12" y="82.71">傾</tspan><tspan class="cls-30" x="277.07" y="82.71">け</tspan><tspan class="cls-18" x="307.99" y="82.71">、</tspan><tspan class="cls-190" x="-30.6" y="124.07">心</tspan><tspan class="cls-165" x="2.55" y="124.07">の</tspan><tspan x="35.74" y="124.07">平</tspan><tspan class="cls-154" x="70.2" y="124.07">穏</tspan><tspan class="cls-70" x="103.01" y="124.07">を</tspan><tspan class="cls-154" x="135.34" y="124.07">見</tspan><tspan class="cls-37" x="168.15" y="124.07">つ</tspan><tspan class="cls-124" x="199.75" y="124.07">け</tspan><tspan class="cls-106" x="228.84" y="124.07">る</tspan><tspan class="cls-162" x="258.48" y="124.07">コ</tspan><tspan class="cls-92" x="291.15" y="124.07">ー</tspan><tspan class="cls-159" x="319.83" y="124.07">ス</tspan><tspan class="cls-13" x="352.39" y="124.07">。</tspan></text>
  <circle class="cls-2" cx="1174.3" cy="865.9" r="171.27"/>
  <text class="cls-3" transform="translate(969.87 1849.67)"><tspan class="cls-59" x="0" y="0">自</tspan><tspan class="cls-149" x="40.71" y="0">己</tspan><tspan x="83.56" y="0">肯定感向</tspan><tspan class="cls-71" x="259.01" y="0">上</tspan><tspan class="cls-169" x="300.11" y="0">コ</tspan><tspan class="cls-84" x="342.13" y="0">ー</tspan><tspan class="cls-184" x="379.37" y="0">ス</tspan></text>
  <text class="cls-4" transform="translate(941.54 1920.26)"><tspan class="cls-44" x="0" y="0">ポ</tspan><tspan class="cls-47" x="31.26" y="0">ジ</tspan><tspan class="cls-92" x="63.62" y="0">テ</tspan><tspan class="cls-11" x="92.29" y="0">ィ</tspan><tspan class="cls-191" x="118.63" y="0">ブ</tspan><tspan class="cls-188" x="151.75" y="0">な</tspan><tspan class="cls-190" x="185.07" y="0">心</tspan><tspan class="cls-165" x="218.23" y="0">の</tspan><tspan x="251.42" y="0">態</tspan><tspan class="cls-190" x="285.88" y="0">度</tspan><tspan class="cls-165" x="319.03" y="0">の</tspan><tspan class="cls-61" x="352.22" y="0">育</tspan><tspan class="cls-72" x="384.86" y="0">て</tspan><tspan class="cls-176" x="417.15" y="0">方</tspan><tspan class="cls-181" x="450.2" y="0">や</tspan><tspan class="cls-63" x="61.02" y="41.36">自</tspan><tspan class="cls-154" x="93.55" y="41.36">分</tspan><tspan class="cls-70" x="126.36" y="41.36">を</tspan><tspan class="cls-181" x="158.69" y="41.36">受</tspan><tspan class="cls-60" x="191.64" y="41.36">け</tspan><tspan class="cls-194" x="224.27" y="41.36">入</tspan><tspan class="cls-45" x="257.77" y="41.36">れ</tspan><tspan class="cls-70" x="289.2" y="41.36">る</tspan><tspan class="cls-6" x="321.53" y="41.36">方</tspan><tspan class="cls-177" x="355.99" y="41.36">法</tspan><tspan class="cls-62" x="389.08" y="41.36">に</tspan><tspan x="91.42" y="82.71">焦</tspan><tspan class="cls-154" x="125.88" y="82.71">点</tspan><tspan class="cls-20" x="158.69" y="82.71">を</tspan><tspan class="cls-40" x="189.74" y="82.71">当</tspan><tspan class="cls-133" x="221.03" y="82.71">て</tspan><tspan class="cls-146" x="251.64" y="82.71">た</tspan><tspan class="cls-162" x="281.76" y="82.71">コ</tspan><tspan class="cls-92" x="314.43" y="82.71">ー</tspan><tspan class="cls-159" x="343.11" y="82.71">ス</tspan><tspan class="cls-13" x="375.67" y="82.71">。</tspan></text>
  <text class="cls-3" transform="translate(-1.75 447.02)"><tspan class="cls-175" x="0" y="0">自</tspan><tspan class="cls-168" x="42.06" y="0">分</tspan><tspan class="cls-152" x="84.35" y="0">を</tspan><tspan class="cls-153" x="126.02" y="0">知</tspan><tspan class="cls-158" x="167.64" y="0">る</tspan><tspan x="209.14" y="0">基礎心理学</tspan></text>
  <text class="cls-4" transform="translate(27.57 518.54)"><tspan x="0" y="0">基本</tspan><tspan class="cls-167" x="68.93" y="0">的</tspan><tspan class="cls-189" x="102.15" y="0">な</tspan><tspan x="135.48" y="0">心理</tspan><tspan class="cls-190" x="204.4" y="0">学</tspan><tspan class="cls-165" x="237.56" y="0">の</tspan><tspan x="270.75" y="0">理</tspan><tspan class="cls-176" x="305.21" y="0">論</tspan><tspan class="cls-181" x="338.26" y="0">や</tspan><tspan x="-17.96" y="41.36">手</tspan><tspan class="cls-154" x="16.51" y="41.36">法</tspan><tspan class="cls-70" x="49.32" y="41.36">を</tspan><tspan class="cls-37" x="81.64" y="41.36">通</tspan><tspan class="cls-99" x="113.25" y="41.36">じ</tspan><tspan class="cls-138" x="143.58" y="41.36">て</tspan><tspan class="cls-17" x="174.15" y="41.36">、</tspan><tspan class="cls-19" x="189.59" y="41.36">自</tspan><tspan class="cls-186" x="220.6" y="41.36">己</tspan><tspan class="cls-1" x="253.9" y="41.36">認</tspan><tspan class="cls-190" x="288.36" y="41.36">識</tspan><tspan class="cls-165" x="321.51" y="41.36">の</tspan><tspan x="354.7" y="41.36">基</tspan><tspan class="cls-154" x="68.63" y="82.71">盤</tspan><tspan class="cls-70" x="101.44" y="82.71">を</tspan><tspan class="cls-128" x="133.77" y="82.71">築</tspan><tspan class="cls-9" x="164.62" y="82.71">く</tspan><tspan class="cls-164" x="191.43" y="82.71">コ</tspan><tspan class="cls-91" x="224.1" y="82.71">ー</tspan><tspan class="cls-161" x="252.78" y="82.71">ス</tspan><tspan class="cls-14" x="285.34" y="82.71">。</tspan></text>
  <text class="cls-3" transform="translate(552.2 447.02)"><tspan x="0" y="0">心理</tspan><tspan class="cls-34" x="87.73" y="0">学</tspan><tspan class="cls-111" x="127.86" y="0">と</tspan><tspan class="cls-136" x="165.76" y="0">コ</tspan><tspan class="cls-74" x="204.75" y="0">ミ</tspan><tspan class="cls-142" x="241.95" y="0">ュ</tspan><tspan class="cls-51" x="280.9" y="0">ニ</tspan><tspan class="cls-173" x="321.91" y="0">ケ</tspan><tspan class="cls-163" x="364.02" y="0">ー</tspan><tspan class="cls-132" x="405.6" y="0">シ</tspan><tspan class="cls-112" x="444.33" y="0">ョ</tspan><tspan class="cls-180" x="482.23" y="0">ン</tspan></text>
  <text class="cls-4" transform="translate(567.01 518.54)"><tspan x="0" y="0">基本</tspan><tspan class="cls-167" x="68.93" y="0">的</tspan><tspan class="cls-189" x="102.15" y="0">な</tspan><tspan x="135.48" y="0">心理</tspan><tspan class="cls-190" x="204.4" y="0">学</tspan><tspan class="cls-165" x="237.56" y="0">の</tspan><tspan x="270.75" y="0">理</tspan><tspan class="cls-156" x="305.21" y="0">解</tspan><tspan class="cls-68" x="338.02" y="0">を</tspan><tspan class="cls-37" x="370.35" y="0">通</tspan><tspan class="cls-99" x="401.95" y="0">じ</tspan><tspan class="cls-140" x="432.28" y="0">て</tspan><tspan class="cls-13" x="462.85" y="0">、</tspan><tspan class="cls-192" x="53.54" y="41.36">良</tspan><tspan class="cls-167" x="87" y="41.36">好</tspan><tspan class="cls-134" x="120.23" y="41.36">な</tspan><tspan class="cls-100" x="150.87" y="41.36">コ</tspan><tspan class="cls-96" x="180.75" y="41.36">ミ</tspan><tspan class="cls-114" x="209.18" y="41.36">ュ</tspan><tspan class="cls-39" x="238.89" y="41.36">ニ</tspan><tspan class="cls-32" x="270.52" y="41.36">ケ</tspan><tspan class="cls-49" x="302.4" y="41.36">ー</tspan><tspan class="cls-117" x="334.42" y="41.36">シ</tspan><tspan class="cls-85" x="364.09" y="41.36">ョ</tspan><tspan class="cls-157" x="393.01" y="41.36">ン</tspan><tspan class="cls-113" x="24.35" y="82.71">ス</tspan><tspan class="cls-104" x="54.06" y="82.71">キ</tspan><tspan class="cls-50" x="84.04" y="82.71">ル</tspan><tspan class="cls-166" x="116.23" y="82.71">の</tspan><tspan x="149.42" y="82.71">向</tspan><tspan class="cls-154" x="183.88" y="82.71">上</tspan><tspan class="cls-129" x="216.69" y="82.71">を</tspan><tspan class="cls-159" x="247.19" y="82.71">目</tspan><tspan class="cls-172" x="279.76" y="82.71">指</tspan><tspan class="cls-144" x="312.74" y="82.71">す</tspan><tspan class="cls-162" x="342.93" y="82.71">コ</tspan><tspan class="cls-92" x="375.6" y="82.71">ー</tspan><tspan class="cls-159" x="404.28" y="82.71">ス</tspan><tspan class="cls-13" x="436.85" y="82.71">。</tspan></text>
  <text class="cls-3" transform="translate(1272.46 447.03)"><tspan x="0" y="0">MB</tspan><tspan class="cls-196" x="73.6" y="0">T</tspan><tspan class="cls-5" x="106.23" y="0">I</tspan><tspan class="cls-169" x="132.46" y="0">コ</tspan><tspan class="cls-76" x="174.48" y="0">ー</tspan><tspan class="cls-184" x="211.73" y="0">ス</tspan></text>
  <text class="cls-4" transform="translate(1230.13 518.53)"><tspan x="0" y="0">MBT</tspan><tspan class="cls-156" x="77.23" y="0">I</tspan><tspan class="cls-68" x="83.4" y="0">を</tspan><tspan class="cls-151" x="115.73" y="0">使</tspan><tspan class="cls-21" x="149.54" y="0">用</tspan><tspan class="cls-33" x="180.52" y="0">し</tspan><tspan class="cls-17" x="212.43" y="0">、</tspan><tspan class="cls-65" x="227.87" y="0">自</tspan><tspan class="cls-190" x="260.41" y="0">分</tspan><tspan class="cls-165" x="293.56" y="0">の</tspan><tspan x="-34.93" y="41.36">個</tspan><tspan class="cls-176" x="-.47" y="41.36">性</tspan><tspan class="cls-181" x="32.58" y="41.36">や</tspan><tspan x="65.53" y="41.36">他</tspan><tspan class="cls-22" x="100" y="41.36">者</tspan><tspan class="cls-102" x="130.98" y="41.36">と</tspan><tspan class="cls-165" x="161.24" y="41.36">の</tspan><tspan class="cls-6" x="194.43" y="41.36">相互</tspan><tspan class="cls-151" x="263.35" y="41.36">作</tspan><tspan class="cls-50" x="297.16" y="41.36">用</tspan><tspan class="cls-70" x="329.35" y="41.36">を</tspan><tspan class="cls-127" x="-33.55" y="82.71">深</tspan><tspan class="cls-119" x="-2.71" y="82.71">く</tspan><tspan x="26.79" y="82.71">理</tspan><tspan class="cls-171" x="61.26" y="82.71">解</tspan><tspan class="cls-27" x="94.24" y="82.71">す</tspan><tspan class="cls-135" x="124.95" y="82.71">る</tspan><tspan class="cls-43" x="155.59" y="82.71">た</tspan><tspan class="cls-54" x="186.81" y="82.71">め</tspan><tspan class="cls-129" x="218.65" y="82.71">の</tspan><tspan class="cls-162" x="249.16" y="82.71">コ</tspan><tspan class="cls-92" x="281.83" y="82.71">ー</tspan><tspan class="cls-159" x="310.5" y="82.71">ス</tspan><tspan class="cls-13" x="343.07" y="82.71">。</tspan></text>
  <path class="cls-2" d="M199.18,10.18C104.66,10.18,28.04,86.81,28.04,181.33s76.62,171.14,171.14,171.14,171.14-76.63,171.14-171.14S293.7,10.18,199.18,10.18ZM211.79,252.23c-3.99,1.78-12.02,4.87-12.02,4.87-.19.08-.39.13-.58.13s-.4-.04-.58-.13c0,0-8.03-3.09-12.02-4.87-63.04-27.89-73.59-70.61-73.59-93.01,0-23.8,19.29-43.1,43.1-43.1s43.1,19.3,43.1,43.1c0-23.8,19.29-43.1,43.09-43.1s43.1,19.3,43.1,43.1c0,22.4-10.54,65.12-73.58,93.01Z"/>
  <g>
    <circle class="cls-2" cx="441.47" cy="874.04" r="171.27"/>
    <path class="cls-8" d="M534.09,947.87c-2.83-3.31-9.45-16.54-9.45-16.54,0,0,1.09-1.41,0-6.15-1.42-6.14-7.56-5.67-8.98-7.09-1.42-1.42-13.7-23.86-14.65-26.47-.95-2.6-11.34-32.13-11.34-32.13-3.49-15.36-9.93-21.74-18.43-23.63-8.43-1.87-13-1.42-16.78-4.73-2.36-2.06-2.28-3.6-2.28-9.83,0,0,2.55-2.42,4.4-5.77,2.12-3.83,3.16-9.36,3.16-9.36,2.13-.85,2.15-1.91,3.07-5.3,1.27-4.68,1.18-7.89-2.22-7.89.8-15.27-6.85-23.05-19.14-23.05s-19.94,7.79-19.14,23.05c-3.4,0-3.5,3.21-2.22,7.89.92,3.38.95,4.44,3.07,5.3,0,0,1.04,5.53,3.17,9.36,1.86,3.35,4.4,5.77,4.4,5.77,0,6.23.08,7.76-2.28,9.83-3.78,3.31-8.35,2.86-16.77,4.73-8.51,1.89-14.94,8.27-18.43,23.63,0,0-10.4,29.53-11.34,32.13-.95,2.6-13.23,25.05-14.65,26.47-1.41,1.41-7.56.95-8.98,7.09-1.09,4.74,0,6.15,0,6.15,0,0-6.62,13.23-9.45,16.54-2.84,3.31,2.37,5.67,5.67,1.41.39.58,1.7.99,3.18,1.19-11.53,12.76-4.96,29.39,12.89,28.58,14.63-.67,70.88-10.87,70.88-10.87,0,0,56.25,10.21,70.88,10.87,17.84.81,24.42-15.82,12.88-28.58,1.49-.2,2.8-.61,3.19-1.19,3.31,4.25,8.5,1.89,5.67-1.41ZM411.71,926.74s-24.21,7.2-39.29,13.98c3.11-5.78,6.68-13.65,6.68-13.65l15.12-21.74,12.05-26.23s3.78,14.18,4.96,16.3c1.18,2.13.48,31.33.48,31.33ZM471.25,926.74s-.71-29.2.47-31.33c1.18-2.13,4.96-16.3,4.96-16.3l12.05,26.23,15.12,21.74s3.58,7.87,6.69,13.65c-15.08-6.78-39.29-13.98-39.29-13.98Z"/>
  </g>
  <g>
    <circle class="cls-2" cx="441.47" cy="1575.35" r="171.27"/>
    <path class="cls-8" d="M362.74,1489.57c14.48-16.93,36.25-28.46,64.15-30.14,2.27-.14,4.53-.21,6.76-.21,23.46,0,45.05,7.62,60.87,21.61,15.83,13.95,25.69,34.38,25.66,58.84,0,.55,0,1.11-.01,1.67l.02,2.95,20.14,35.57c1.08,1.92,1.63,4.06,1.63,6.2,0,1.79-.38,3.58-1.15,5.25-1.63,3.55-4.82,6.1-8.61,6.98v.03s-9.26,2.55-9.26,2.55l-3.66,35.3h-.03c-.26,5.14-2.55,9.97-6.45,13.35-3.46,3.02-7.88,4.65-12.43,4.65-.46,0-.91-.04-1.37-.07l-10.5.83-.53-.06h-.17c-.4,0-.78.14-1.07.4l-.02.02c-.33.3-.53.74-.53,1.19v36.16h-98v-26.29c.01-2.39-.46-7.11-1.4-11.66-.46-2.28-1.04-4.56-1.69-6.53-.64-1.97-1.39-3.64-2.01-4.61-6.52-10.51-15.73-19.13-24.17-31.31-8.43-12.18-15.62-27.98-17.59-51.95-.25-3.01-.38-6.01-.38-9,0-22.73,7.26-44.79,21.76-61.71ZM352.3,1559.37c1.9,22.28,8.14,35.61,15.68,46.64,7.54,11.01,16.86,19.67,24.44,31.72,1.32,2.13,2.29,4.49,3.12,7,1.24,3.76,2.12,7.85,2.72,11.66.6,3.82.92,7.29.92,9.96v15.31h76.04v-25.18c0-3.58,1.52-6.98,4.19-9.37,2.33-2.09,5.33-3.22,8.4-3.22.23,0,.44.02.66.04l10.48-.84.51.06.9.05c1.91,0,3.77-.69,5.22-1.95,1.68-1.46,2.67-3.56,2.74-5.8v-.21s4.46-42.95,4.46-42.95l16.69-4.6.2-.04c.51-.1.93-.44,1.15-.91l.15-.68-.21-.79-21.54-38.04-.05-5.94v-.08c.01-.51.01-1.02.01-1.53-.04-21.54-8.41-38.59-21.95-50.62-13.56-12-32.49-18.85-53.6-18.85-2.01,0-4.04.06-6.09.19l-.34-5.48.34,5.48c-25.28,1.59-43.88,11.67-56.49,26.33-12.59,14.67-19.12,34.14-19.12,54.56,0,2.68.11,5.38.34,8.09Z"/>
    <path class="cls-8" d="M412.38,1493.88c11.89.23,17.7,8.64,18.99,16.29,1.29-7.65,7.11-16.06,18.99-16.29,10.96-.21,20.02,8.22,20.02,23.61,0,19.75-22.34,28.87-37.62,43.63-.53.51-.41.5-.41.5-.25.31-.61.49-.99.49h0s0,0,0,0h0c-.38,0-.74-.18-.99-.49,0,0,.13.01-.41-.5-15.28-14.75-37.62-23.88-37.62-43.63,0-15.39,9.06-23.82,20.02-23.61Z"/>
  </g>
  <g>
    <path class="cls-8" d="M1272.24,943.65c-2.64-3.09-8.83-15.45-8.83-15.45,0,0,1.02-1.32,0-5.74-1.33-5.74-7.07-5.3-8.39-6.62-1.33-1.33-12.8-22.3-13.69-24.73-.88-2.43-10.6-30.02-10.6-30.02-3.26-14.35-9.28-20.31-17.22-22.08-7.88-1.75-12.14-1.32-15.68-4.42-2.21-1.93-2.13-3.36-2.13-9.18,0,0,2.38-2.26,4.12-5.39,1.98-3.58,2.96-8.74,2.96-8.74,1.99-.8,2.01-1.79,2.87-4.95,1.19-4.37,1.11-7.37-2.07-7.37.75-14.26-6.4-21.54-17.89-21.54s-18.63,7.28-17.88,21.54c-3.18,0-3.27,3-2.07,7.37.86,3.16.88,4.15,2.87,4.95,0,0,.97,5.16,2.96,8.74,1.74,3.13,4.12,5.39,4.12,5.39,0,5.82.07,7.25-2.13,9.18-3.53,3.09-7.8,2.67-15.67,4.42-7.95,1.77-13.96,7.73-17.22,22.08,0,0-9.72,27.59-10.6,30.02-.88,2.43-12.37,23.4-13.69,24.73-1.32,1.32-7.07.88-8.39,6.62-1.02,4.43,0,5.74,0,5.74,0,0-6.18,12.36-8.83,15.45-2.65,3.09,2.21,5.3,5.3,1.32.36.54,1.59.93,2.97,1.11-10.77,11.93-4.63,27.46,12.04,26.71,13.67-.62,66.22-10.16,66.22-10.16,0,0,52.55,9.53,66.23,10.16,16.67.76,22.81-14.78,12.03-26.71,1.39-.19,2.62-.57,2.98-1.11,3.09,3.97,7.94,1.77,5.29-1.32ZM1157.89,923.91s-22.62,6.73-36.71,13.06c2.9-5.4,6.24-12.76,6.24-12.76l14.13-20.31,11.26-24.51s3.53,13.25,4.63,15.23c1.11,1.99.44,29.27.44,29.27ZM1213.52,923.91s-.66-27.29.44-29.27c1.11-1.99,4.64-15.23,4.64-15.23l11.26,24.51,14.13,20.31s3.35,7.35,6.25,12.76c-14.09-6.34-36.71-13.06-36.71-13.06Z"/>
    <path class="cls-8" d="M1138.22,764.68c-6.91-6.92-16.03-10.4-25.09-10.39-9.06,0-18.18,3.48-25.09,10.39-6.92,6.91-10.4,16.03-10.39,25.09,0,6.33,1.73,12.66,5.1,18.27l-17.18,17.18c-3.34,3.34-3.34,8.76,0,12.11,3.34,3.34,8.76,3.34,12.11,0l17.18-17.18c5.61,3.38,11.95,5.11,18.27,5.1,9.06,0,18.18-3.47,25.09-10.39,6.91-6.91,10.4-16.03,10.39-25.09.01-9.05-3.48-18.18-10.39-25.09ZM1128.53,805.17c-4.27,4.27-9.8,6.37-15.4,6.38-5.6-.01-11.13-2.11-15.4-6.38-4.27-4.27-6.37-9.81-6.38-15.41.01-5.59,2.11-11.13,6.38-15.4,4.27-4.27,9.81-6.37,15.4-6.38,5.6.01,11.13,2.11,15.4,6.38,4.27,4.27,6.37,9.81,6.38,15.4-.01,5.6-2.11,11.13-6.38,15.41Z"/>
  </g>
  <g>
    <circle class="cls-2" cx="1183.7" cy="1575.35" r="171.27"/>
    <g>
      <path class="cls-8" d="M1318.62,1616.46l-36.89-37.3c-1.46-1.48-3.44-2.3-5.52-2.3s-4.05.83-5.51,2.3l-36.89,37.3c-3.01,3.05-2.99,7.96.06,10.97,3.04,3.01,7.95,2.99,10.97-.06l23.63-23.88v59.42c0,4.28,3.47,7.75,7.75,7.75s7.75-3.47,7.75-7.75v-59.42l23.62,23.88c3.01,3.05,7.92,3.07,10.97.06,3.05-3.01,3.07-7.92.06-10.97Z"/>
      <path class="cls-8" d="M1293.04,1495.8c-10.7.21-15.93,7.78-17.09,14.66-1.16-6.88-6.4-14.45-17.09-14.66-9.86-.19-18.02,7.4-18.02,21.24,0,17.77,20.11,25.99,33.85,39.26.48.46.37.45.37.45.23.28.55.44.89.44h0s0,0,0,0h0c.34,0,.67-.16.89-.44,0,0-.11.01.37-.45,13.75-13.28,33.85-21.49,33.85-39.26,0-13.85-8.16-21.43-18.02-21.24Z"/>
      <path class="cls-8" d="M1221.89,1586.16l-16.47-34.91c.04-1.04.08-2.09.08-3.14,0-43.89-35.59-79.48-79.48-79.48s-79.48,35.59-79.48,79.47c0,24.69,11.25,46.74,28.91,61.32v28.09c0,2.74,1.63,5.22,4.16,6.29l65.83,27.92c2.11.89,4.52.68,6.43-.58,1.91-1.27,3.06-3.41,3.06-5.69v-23.81c0-3.77,3.06-6.83,6.82-6.83h33.72c3.77,0,6.82-3.06,6.82-6.82v-20.53c0-2.62,1.5-5,3.85-6.15l12.56-6.1c3.37-1.64,4.79-5.67,3.19-9.06Z"/>
    </g>
  </g>
  <g>
    <circle class="cls-2" cx="806.92" cy="171.27" r="171.27"/>
    <g>
      <path class="cls-8" d="M852.51,251.32h75.22c0-16.59-8.75-28.9-21.42-34.48v-6.38c6.54-4.14,11.79-10.42,14.56-18.29l3.28-9.3c6.56-18.62-3.21-39.02-21.82-45.58-17.92-6.32-37.5,2.51-44.79,19.78l-11.45,7.84c-.43.37-.66.93-.61,1.5.05.57.37,1.08.86,1.38l5.86,4.19c-.6,1.69-.99,2.81-.99,2.81l25.48,17.91-18.31,8.76c4.1,5.58,9.87,10.04,16.9,12.52.55.19,1.1.37,1.65.54v1.15c-14.27,4.87-24.43,17.77-24.43,35.65Z"/>
      <path class="cls-8" d="M765.55,249.07h-79.44c0-17.52,9.24-30.52,22.62-36.41v-6.74c-6.91-4.38-12.45-11.01-15.38-19.31l-3.46-9.82c-6.93-19.66,3.39-41.21,23.04-48.14,18.92-6.67,39.6,2.65,47.3,20.89l12.09,8.28c.46.39.7.99.65,1.59-.05.6-.39,1.14-.91,1.45l-6.19,4.43c.63,1.79,1.05,2.97,1.05,2.97l-26.91,18.91,19.33,9.25c-4.33,5.9-10.42,10.6-17.85,13.22-.58.2-1.16.39-1.74.57v1.21c15.07,5.14,25.8,18.76,25.8,37.64Z"/>
      <path class="cls-8" d="M798.67,91.23c-18.06,0-30.31,9.21-30.31,23.53,0,8.81,3.66,15.87,10.74,20.41.47.3,1.03.35.82,1.22-.84,3.53-2.31,9.82-2.31,9.82-.06.27.04.54.25.71.22.17.51.19.75.06,0,0,10.36-6.14,11.74-6.9,3.22-1.84,6-2.2,8.08-2.2,14.32,0,30.28-5.73,30.28-23.27,0-13.61-10.97-23.37-30.04-23.37Z"/>
      <path class="cls-8" d="M816.84,147.62c15.02,0,25.21,7.66,25.21,19.57,0,7.33-3.05,13.2-8.93,16.98-.39.25-.86.29-.68,1.02.7,2.93,1.92,8.16,1.92,8.16.05.22-.03.45-.21.59-.18.14-.42.16-.63.05,0,0-8.61-5.1-9.76-5.74-2.68-1.53-4.99-1.83-6.72-1.83-11.91,0-25.18-4.77-25.18-19.36,0-11.32,9.12-19.44,24.99-19.44Z"/>
    </g>
  </g>
  <g>
    <circle class="cls-2" cx="1393.74" cy="173.99" r="171.27"/>
    <g>
      <path class="cls-8" d="M1330.71,107.28c-2.51,0-4.73-1-6.38-2.64-1.64-1.65-2.64-3.87-2.64-6.38,0-2.51,1-4.73,2.64-6.38,1.65-1.64,3.87-2.64,6.38-2.64h140.93s0-11.68,0-11.68h-140.93c-11.44,0-20.7,9.27-20.71,20.71v166.93c0,11.44,9.27,20.7,20.71,20.71h146.78V107.28h-146.78ZM1465.8,274.21h-135.09c-4.98,0-9.01-4.04-9.02-9.02V116.87c2.73,1.32,5.78,2.09,9.02,2.09h135.09v155.24h0Z"/>
      <text class="cls-7" transform="translate(1329.8 205.17)"><tspan x="0" y="0">MBTI</tspan></text>
    </g>
  </g>
</svg>