<?xml version="1.0" encoding="UTF-8"?>
<svg id="_レイヤー_1" data-name="レイヤー 1" xmlns="http://www.w3.org/2000/svg" viewBox="0 0 1848.4 2040.59">
  <defs>
    <style>
      .cls-1 {
        letter-spacing: 0em;
      }

      .cls-2 {
        letter-spacing: 0em;
      }

      .cls-3, .cls-4, .cls-5, .cls-6, .cls-7, .cls-8, .cls-9 {
        fill: #92c7cf;
      }

      .cls-10 {
        letter-spacing: .16em;
      }

      .cls-4, .cls-5, .cls-6, .cls-7 {
        font-family: HiraginoSans-W4-83pv-RKSJ-H, 'Hiragino Sans';
      }

      .cls-4, .cls-8 {
        font-size: 40.76px;
      }

      .cls-5 {
        font-size: 42.39px;
      }

      .cls-6 {
        font-size: 47.28px;
      }

      .cls-7 {
        font-size: 45.65px;
      }

      .cls-11 {
        letter-spacing: 0em;
      }

      .cls-12 {
        letter-spacing: -.26em;
      }

      .cls-13 {
        letter-spacing: -.29em;
      }

      .cls-14 {
        letter-spacing: -.21em;
      }

      .cls-15 {
        letter-spacing: -.5em;
      }

      .cls-16 {
        letter-spacing: -.54em;
      }

      .cls-17 {
        letter-spacing: -.5em;
      }

      .cls-18 {
        letter-spacing: -.5em;
      }

      .cls-19 {
        letter-spacing: -.09em;
      }

      .cls-20 {
        letter-spacing: -.09em;
      }

      .cls-21 {
        letter-spacing: -.09em;
      }

      .cls-22 {
        letter-spacing: -.09em;
      }

      .cls-23 {
        letter-spacing: -.1em;
      }

      .cls-24 {
        letter-spacing: -.1em;
      }

      .cls-25 {
        letter-spacing: -.1em;
      }

      .cls-26 {
        letter-spacing: -.1em;
      }

      .cls-27 {
        letter-spacing: -.1em;
      }

      .cls-28 {
        letter-spacing: -.1em;
      }

      .cls-29 {
        letter-spacing: -.1em;
      }

      .cls-30 {
        letter-spacing: -.1em;
      }

      .cls-31 {
        letter-spacing: -.1em;
      }

      .cls-32 {
        letter-spacing: -.09em;
      }

      .cls-33 {
        letter-spacing: -.1em;
      }

      .cls-34 {
        letter-spacing: -.1em;
      }

      .cls-35 {
        letter-spacing: -.1em;
      }

      .cls-36 {
        letter-spacing: -.11em;
      }

      .cls-37 {
        letter-spacing: -.11em;
      }

      .cls-38 {
        letter-spacing: -.11em;
      }

      .cls-39 {
        letter-spacing: -.11em;
      }

      .cls-40 {
        letter-spacing: -.1em;
      }

      .cls-41 {
        letter-spacing: -.1em;
      }

      .cls-42 {
        letter-spacing: -.1em;
      }

      .cls-43 {
        letter-spacing: -.1em;
      }

      .cls-44 {
        letter-spacing: -.08em;
      }

      .cls-45 {
        letter-spacing: -.07em;
      }

      .cls-46 {
        letter-spacing: -.07em;
      }

      .cls-47 {
        letter-spacing: -.07em;
      }

      .cls-48 {
        letter-spacing: -.07em;
      }

      .cls-49 {
        letter-spacing: -.08em;
      }

      .cls-50 {
        letter-spacing: -.08em;
      }

      .cls-51 {
        letter-spacing: -.08em;
      }

      .cls-52 {
        letter-spacing: -.08em;
      }

      .cls-53 {
        letter-spacing: -.08em;
      }

      .cls-54 {
        letter-spacing: -.09em;
      }

      .cls-55 {
        letter-spacing: -.08em;
      }

      .cls-56 {
        letter-spacing: -.08em;
      }

      .cls-57 {
        letter-spacing: -.08em;
      }

      .cls-58 {
        letter-spacing: -.08em;
      }

      .cls-59 {
        letter-spacing: -.08em;
      }

      .cls-60 {
        letter-spacing: -.08em;
      }

      .cls-61 {
        letter-spacing: -.08em;
      }

      .cls-62 {
        letter-spacing: -.08em;
      }

      .cls-63 {
        letter-spacing: -.09em;
      }

      .cls-64 {
        letter-spacing: -.09em;
      }

      .cls-65 {
        letter-spacing: -.09em;
      }

      .cls-66 {
        letter-spacing: -.09em;
      }

      .cls-67 {
        letter-spacing: -.09em;
      }

      .cls-68 {
        letter-spacing: -.09em;
      }

      .cls-69 {
        letter-spacing: -.09em;
      }

      .cls-70 {
        letter-spacing: -.09em;
      }

      .cls-71 {
        letter-spacing: -.09em;
      }

      .cls-72 {
        letter-spacing: -.09em;
      }

      .cls-73 {
        letter-spacing: -.09em;
      }

      .cls-74 {
        letter-spacing: -.09em;
      }

      .cls-75 {
        letter-spacing: -.06em;
      }

      .cls-76 {
        letter-spacing: -.07em;
      }

      .cls-77 {
        letter-spacing: -.07em;
      }

      .cls-78 {
        letter-spacing: -.07em;
      }

      .cls-79 {
        letter-spacing: -.07em;
      }

      .cls-80 {
        letter-spacing: -.06em;
      }

      .cls-81 {
        letter-spacing: -.06em;
      }

      .cls-82 {
        letter-spacing: -.07em;
      }

      .cls-83 {
        letter-spacing: -.06em;
      }

      .cls-84 {
        letter-spacing: -.08em;
      }

      .cls-85 {
        letter-spacing: -.08em;
      }

      .cls-86 {
        letter-spacing: -.08em;
      }

      .cls-87 {
        letter-spacing: -.08em;
      }

      .cls-88 {
        letter-spacing: -.07em;
      }

      .cls-89 {
        letter-spacing: -.07em;
      }

      .cls-90 {
        letter-spacing: -.08em;
      }

      .cls-91 {
        letter-spacing: -.07em;
      }

      .cls-92 {
        letter-spacing: -.07em;
      }

      .cls-93 {
        letter-spacing: -.07em;
      }

      .cls-94 {
        letter-spacing: -.05em;
      }

      .cls-95 {
        letter-spacing: -.06em;
      }

      .cls-96 {
        letter-spacing: -.06em;
      }

      .cls-97 {
        letter-spacing: -.06em;
      }

      .cls-98 {
        letter-spacing: -.06em;
      }

      .cls-99 {
        letter-spacing: -.06em;
      }

      .cls-100 {
        letter-spacing: -.06em;
      }

      .cls-101 {
        letter-spacing: -.06em;
      }

      .cls-102 {
        letter-spacing: -.06em;
      }

      .cls-103 {
        letter-spacing: -.06em;
      }

      .cls-104 {
        letter-spacing: -.06em;
      }

      .cls-105 {
        letter-spacing: -.18em;
      }

      .cls-106 {
        letter-spacing: -.19em;
      }

      .cls-107 {
        letter-spacing: -.2em;
      }

      .cls-108 {
        letter-spacing: -.15em;
      }

      .cls-109 {
        letter-spacing: -.15em;
      }

      .cls-110 {
        letter-spacing: -.15em;
      }

      .cls-111 {
        letter-spacing: -.16em;
      }

      .cls-8 {
        letter-spacing: -.5em;
      }

      .cls-8, .cls-9 {
        font-family: HiraginoSans-W1-83pv-RKSJ-H, 'Hiragino Sans';
      }

      .cls-112 {
        letter-spacing: -.16em;
      }

      .cls-113 {
        letter-spacing: -.16em;
      }

      .cls-114 {
        letter-spacing: -.16em;
      }

      .cls-115 {
        letter-spacing: -.16em;
      }

      .cls-116 {
        letter-spacing: -.17em;
      }

      .cls-117 {
        letter-spacing: -.17em;
      }

      .cls-118 {
        letter-spacing: -.17em;
      }

      .cls-119 {
        letter-spacing: -.17em;
      }

      .cls-120 {
        letter-spacing: -.17em;
      }

      .cls-121 {
        letter-spacing: -.17em;
      }

      .cls-122 {
        letter-spacing: -.17em;
      }

      .cls-123 {
        letter-spacing: -.18em;
      }

      .cls-124 {
        letter-spacing: -.19em;
      }

      .cls-125 {
        letter-spacing: -.13em;
      }

      .cls-126 {
        letter-spacing: -.13em;
      }

      .cls-127 {
        letter-spacing: -.12em;
      }

      .cls-128 {
        letter-spacing: -.13em;
      }

      .cls-129 {
        letter-spacing: -.14em;
      }

      .cls-130 {
        letter-spacing: -.14em;
      }

      .cls-131 {
        letter-spacing: -.14em;
      }

      .cls-132 {
        letter-spacing: -.14em;
      }

      .cls-133 {
        letter-spacing: -.14em;
      }

      .cls-134 {
        letter-spacing: -.14em;
      }

      .cls-135 {
        letter-spacing: -.13em;
      }

      .cls-136 {
        letter-spacing: -.14em;
      }

      .cls-137 {
        letter-spacing: -.14em;
      }

      .cls-138 {
        letter-spacing: -.14em;
      }

      .cls-139 {
        letter-spacing: -.15em;
      }

      .cls-140 {
        letter-spacing: -.13em;
      }

      .cls-141 {
        letter-spacing: -.13em;
      }

      .cls-142 {
        letter-spacing: -.15em;
      }

      .cls-143 {
        letter-spacing: -.14em;
      }

      .cls-144 {
        letter-spacing: -.16em;
      }

      .cls-145 {
        letter-spacing: -.16em;
      }

      .cls-146 {
        letter-spacing: -.11em;
      }

      .cls-147 {
        letter-spacing: -.11em;
      }

      .cls-148 {
        letter-spacing: -.11em;
      }

      .cls-149 {
        letter-spacing: -.12em;
      }

      .cls-150 {
        letter-spacing: -.11em;
      }

      .cls-151 {
        letter-spacing: -.11em;
      }

      .cls-152 {
        letter-spacing: -.11em;
      }

      .cls-153 {
        letter-spacing: -.12em;
      }

      .cls-154 {
        letter-spacing: -.11em;
      }

      .cls-155 {
        letter-spacing: -.11em;
      }

      .cls-156 {
        letter-spacing: -.11em;
      }

      .cls-157 {
        letter-spacing: -.12em;
      }

      .cls-158 {
        letter-spacing: -.11em;
      }

      .cls-159 {
        letter-spacing: -.12em;
      }

      .cls-160 {
        letter-spacing: -.12em;
      }

      .cls-161 {
        letter-spacing: -.13em;
      }

      .cls-162 {
        letter-spacing: -.13em;
      }

      .cls-163 {
        letter-spacing: -.02em;
      }

      .cls-164 {
        letter-spacing: -.02em;
      }

      .cls-165 {
        letter-spacing: -.02em;
      }

      .cls-166 {
        letter-spacing: -.02em;
      }

      .cls-167 {
        letter-spacing: -.05em;
      }

      .cls-168 {
        letter-spacing: -.05em;
      }

      .cls-169 {
        letter-spacing: -.05em;
      }

      .cls-170 {
        letter-spacing: -.05em;
      }

      .cls-171 {
        letter-spacing: -.05em;
      }

      .cls-172 {
        letter-spacing: -.05em;
      }

      .cls-173 {
        letter-spacing: -.05em;
      }

      .cls-174 {
        letter-spacing: -.06em;
      }

      .cls-175 {
        letter-spacing: -.06em;
      }

      .cls-176 {
        letter-spacing: -.05em;
      }

      .cls-177 {
        letter-spacing: -.05em;
      }

      .cls-178 {
        letter-spacing: -.05em;
      }

      .cls-179 {
        letter-spacing: -.05em;
      }

      .cls-180 {
        letter-spacing: -.05em;
      }

      .cls-181 {
        letter-spacing: -.05em;
      }

      .cls-182 {
        letter-spacing: -.04em;
      }

      .cls-183 {
        letter-spacing: -.04em;
      }

      .cls-184 {
        letter-spacing: -.04em;
      }

      .cls-185 {
        letter-spacing: -.04em;
      }

      .cls-186 {
        letter-spacing: -.04em;
      }

      .cls-187 {
        letter-spacing: -.04em;
      }

      .cls-188 {
        letter-spacing: -.04em;
      }

      .cls-189 {
        letter-spacing: -.04em;
      }

      .cls-190 {
        letter-spacing: -.04em;
      }

      .cls-191 {
        letter-spacing: -.04em;
      }

      .cls-192 {
        letter-spacing: -.04em;
      }

      .cls-193 {
        letter-spacing: -.04em;
      }

      .cls-194 {
        letter-spacing: -.04em;
      }

      .cls-195 {
        letter-spacing: -.04em;
      }

      .cls-196 {
        letter-spacing: -.05em;
      }

      .cls-197 {
        letter-spacing: -.04em;
      }

      .cls-198 {
        letter-spacing: -.04em;
      }

      .cls-199 {
        letter-spacing: -.04em;
      }

      .cls-200 {
        letter-spacing: -.05em;
      }

      .cls-201 {
        letter-spacing: -.05em;
      }

      .cls-202 {
        letter-spacing: -.04em;
      }

      .cls-203 {
        letter-spacing: -.04em;
      }

      .cls-204 {
        letter-spacing: -.03em;
      }

      .cls-205 {
        letter-spacing: -.03em;
      }

      .cls-206 {
        letter-spacing: -.03em;
      }

      .cls-207 {
        letter-spacing: -.04em;
      }

      .cls-208 {
        letter-spacing: -.04em;
      }

      .cls-209 {
        letter-spacing: -.03em;
      }

      .cls-210 {
        letter-spacing: -.03em;
      }

      .cls-211 {
        letter-spacing: -.03em;
      }

      .cls-212 {
        letter-spacing: -.03em;
      }

      .cls-213 {
        letter-spacing: -.03em;
      }

      .cls-214 {
        letter-spacing: -.03em;
      }

      .cls-215 {
        letter-spacing: 0em;
      }

      .cls-9 {
        font-size: 34.24px;
      }

      .cls-216 {
        fill: #fcfdfd;
      }
    </style>
  </defs>
  <text class="cls-7" transform="translate(1070.63 1184.09)"><tspan x="0" y="0">地</tspan><tspan class="cls-103" x="45.65" y="0">域</tspan><tspan class="cls-151" x="88.43" y="0">コ</tspan><tspan class="cls-108" x="129.02" y="0">ミ</tspan><tspan class="cls-156" x="167.73" y="0">ュ</tspan><tspan class="cls-77" x="208.28" y="0">ニ</tspan><tspan class="cls-140" x="250.83" y="0">テ</tspan><tspan class="cls-128" x="290.32" y="0">ィ</tspan><tspan class="cls-211" x="329.99" y="0">の</tspan><tspan x="374.37" y="0">強化戦略</tspan></text>
  <text class="cls-9" transform="translate(1099.68 1253.87)"><tspan x="0" y="0">地域社</tspan><tspan class="cls-203" x="102.72" y="0">会</tspan><tspan class="cls-189" x="135.66" y="0">の</tspan><tspan x="168.63" y="0">発</tspan><tspan class="cls-194" x="202.88" y="0">展</tspan><tspan class="cls-95" x="235.75" y="0">に</tspan><tspan x="267.97" y="0">貢</tspan><tspan class="cls-191" x="302.21" y="0">献</tspan><tspan class="cls-38" x="334.98" y="0">す</tspan><tspan class="cls-152" x="365.48" y="0">る</tspan><tspan class="cls-68" x="395.92" y="0">た</tspan><tspan class="cls-85" x="426.95" y="0">め</tspan><tspan class="cls-189" x="458.58" y="0">の</tspan><tspan x="65.07" y="41.09">戦</tspan><tspan class="cls-27" x="99.31" y="41.09">略</tspan><tspan class="cls-143" x="130.1" y="41.09">と</tspan><tspan class="cls-117" x="159.37" y="41.09">ア</tspan><tspan class="cls-115" x="187.76" y="41.09">ク</tspan><tspan class="cls-138" x="216.45" y="41.09">シ</tspan><tspan class="cls-113" x="245.93" y="41.09">ョ</tspan><tspan class="cls-157" x="274.66" y="41.09">ン</tspan><tspan class="cls-43" x="304.69" y="41.09">プ</tspan><tspan class="cls-123" x="335.4" y="41.09">ラ</tspan><tspan class="cls-25" x="363.62" y="41.09">ン</tspan><tspan class="cls-99" x="394.37" y="41.09">を</tspan><tspan x="80.11" y="82.18">構</tspan><tspan class="cls-191" x="114.35" y="82.18">築</tspan><tspan class="cls-38" x="147.11" y="82.18">す</tspan><tspan class="cls-152" x="177.62" y="82.18">る</tspan><tspan class="cls-66" x="208.06" y="82.18">た</tspan><tspan class="cls-87" x="239.09" y="82.18">め</tspan><tspan class="cls-150" x="270.72" y="82.18">の</tspan><tspan class="cls-178" x="301.03" y="82.18">コ</tspan><tspan class="cls-121" x="333.49" y="82.18">ー</tspan><tspan class="cls-173" x="361.98" y="82.18">ス</tspan><tspan class="cls-18" x="394.33" y="82.18">。</tspan></text>
  <text class="cls-6" transform="translate(228.54 1185.07)"><tspan class="cls-130" x="0" y="0">ヒ</tspan><tspan class="cls-86" x="40.67" y="0">ュ</tspan><tspan class="cls-57" x="84.36" y="0">ー</tspan><tspan class="cls-148" x="127.81" y="0">マ</tspan><tspan class="cls-37" x="170.08" y="0">ン</tspan><tspan class="cls-32" x="212.31" y="0">ラ</tspan><tspan class="cls-127" x="255.1" y="0">イ</tspan><tspan class="cls-131" x="296.62" y="0">ツ</tspan><tspan class="cls-92" x="337.28" y="0">と</tspan><tspan class="cls-212" x="381.12" y="0">法の</tspan><tspan class="cls-2" x="473.04" y="0">理解</tspan></text>
  <text class="cls-9" transform="translate(261.15 1254.85)"><tspan class="cls-111" x="0" y="0">ヒ</tspan><tspan class="cls-21" x="28.66" y="0">ュ</tspan><tspan class="cls-33" x="59.82" y="0">ー</tspan><tspan class="cls-135" x="90.7" y="0">マン</tspan><tspan class="cls-155" x="150.49" y="0">ラ</tspan><tspan class="cls-133" x="180.89" y="0">イ</tspan><tspan class="cls-119" x="210.31" y="0">ツ</tspan><tspan class="cls-53" x="238.83" y="0">と</tspan><tspan class="cls-207" x="270.19" y="0">法</tspan><tspan class="cls-184" x="303.13" y="0">の</tspan><tspan x="336.11" y="0">基本原</tspan><tspan class="cls-169" x="438.83" y="0">則</tspan><tspan class="cls-100" x="471.43" y="0">を</tspan><tspan x="2.43" y="41.09">理</tspan><tspan class="cls-60" x="36.67" y="41.09">解</tspan><tspan class="cls-46" x="68.07" y="41.09">し</tspan><tspan class="cls-18" x="99.78" y="41.09">、</tspan><tspan class="cls-1" x="116.9" y="41.09">社</tspan><tspan class="cls-194" x="151.14" y="41.09">会</tspan><tspan class="cls-42" x="184.01" y="41.09">に</tspan><tspan class="cls-55" x="214.72" y="41.09">お</tspan><tspan class="cls-145" x="246.19" y="41.09">け</tspan><tspan class="cls-101" x="275.09" y="41.09">る</tspan><tspan class="cls-1" x="307.21" y="41.09">正</tspan><tspan class="cls-29" x="341.45" y="41.09">義</tspan><tspan class="cls-51" x="372.23" y="41.09">と</tspan><tspan class="cls-1" x="403.59" y="41.09">平</tspan><tspan class="cls-203" x="437.83" y="41.09">等</tspan><tspan class="cls-182" x="470.77" y="41.09">の</tspan><tspan x="-2.31" y="82.18">実</tspan><tspan class="cls-195" x="31.93" y="82.18">現</tspan><tspan class="cls-96" x="64.8" y="82.18">に</tspan><tspan class="cls-197" x="97.02" y="82.18">向</tspan><tspan class="cls-25" x="129.75" y="82.18">け</tspan><tspan class="cls-171" x="160.5" y="82.18">た</tspan><tspan class="cls-69" x="193.1" y="82.18">取</tspan><tspan class="cls-30" x="224.12" y="82.18">り</tspan><tspan class="cls-167" x="255.08" y="82.18">組</tspan><tspan class="cls-84" x="287.78" y="82.18">み</tspan><tspan class="cls-100" x="319.38" y="82.18">を</tspan><tspan class="cls-208" x="351.5" y="82.18">学</tspan><tspan class="cls-29" x="384.4" y="82.18">ぶ</tspan><tspan class="cls-181" x="415.19" y="82.18">コ</tspan><tspan class="cls-120" x="447.65" y="82.18">ー</tspan><tspan class="cls-174" x="476.13" y="82.18">ス</tspan></text>
  <circle class="cls-3" cx="514.23" cy="901.99" r="178.27"/>
  <text class="cls-7" transform="translate(174.27 461.86)"><tspan x="0" y="0">SDG</tspan><tspan class="cls-10" x="101.21" y="0">s</tspan><tspan class="cls-188" x="133.63" y="0">コ</tspan><tspan class="cls-109" x="177.36" y="0">ー</tspan><tspan class="cls-198" x="216.13" y="0">ス</tspan></text>
  <text class="cls-9" transform="translate(67.14 546.11)"><tspan x="0" y="0">持続可</tspan><tspan class="cls-185" x="102.72" y="0">能</tspan><tspan class="cls-206" x="135.73" y="0">な</tspan><tspan class="cls-1" x="168.84" y="0">開</tspan><tspan class="cls-94" x="203.08" y="0">発</tspan><tspan class="cls-174" x="235.51" y="0">目</tspan><tspan class="cls-15" x="267.86" y="0">標</tspan><tspan x="284.98" y="0">（SDGs</tspan><tspan class="cls-16" x="409.21" y="0">）</tspan><tspan class="cls-182" x="425.03" y="0">の</tspan><tspan x="9.67" y="41.09">理</tspan><tspan class="cls-29" x="43.91" y="41.09">解</tspan><tspan class="cls-53" x="74.7" y="41.09">と</tspan><tspan class="cls-15" x="106.06" y="41.09">、</tspan><tspan x="123.18" y="41.09">個</tspan><tspan class="cls-192" x="157.42" y="41.09">人</tspan><tspan class="cls-158" x="190.26" y="41.09">や</tspan><tspan class="cls-64" x="220.59" y="41.09">ビ</tspan><tspan class="cls-83" x="251.72" y="41.09">ジ</tspan><tspan class="cls-65" x="283.73" y="41.09">ネ</tspan><tspan class="cls-53" x="314.86" y="41.09">ス</tspan><tspan class="cls-164" x="346.22" y="41.09">が</tspan><tspan x="379.85" y="41.09">貢献</tspan><tspan class="cls-30" x="-17.51" y="82.18">で</tspan><tspan class="cls-132" x="13.44" y="82.18">き</tspan><tspan class="cls-101" x="42.89" y="82.18">る</tspan><tspan x="75" y="82.18">方</tspan><tspan class="cls-195" x="109.24" y="82.18">法</tspan><tspan class="cls-96" x="142.12" y="82.18">に</tspan><tspan x="174.34" y="82.18">焦</tspan><tspan class="cls-169" x="208.58" y="82.18">点</tspan><tspan class="cls-23" x="241.17" y="82.18">を</tspan><tspan class="cls-71" x="272.02" y="82.18">当</tspan><tspan class="cls-156" x="303.12" y="82.18">て</tspan><tspan class="cls-162" x="333.52" y="82.18">た</tspan><tspan class="cls-181" x="363.45" y="82.18">コ</tspan><tspan class="cls-121" x="395.91" y="82.18">ー</tspan><tspan class="cls-175" x="424.4" y="82.18">ス</tspan><tspan class="cls-18" x="456.75" y="82.18">。</tspan></text>
  <text class="cls-5" transform="translate(1239.46 461.04)"><tspan class="cls-137" x="0" y="0">ダ</tspan><tspan class="cls-116" x="36.54" y="0">イ</tspan><tspan class="cls-177" x="71.69" y="0">バー</tspan><tspan class="cls-45" x="152.07" y="0">シ</tspan><tspan class="cls-141" x="191.32" y="0">テ</tspan><tspan class="cls-124" x="227.99" y="0">ィ</tspan><tspan class="cls-146" x="262.42" y="0">と</tspan><tspan class="cls-125" x="300.32" y="0">イ</tspan><tspan class="cls-34" x="337.07" y="0">ン</tspan><tspan class="cls-110" x="375.35" y="0">ク</tspan><tspan class="cls-163" x="411.3" y="0">ル</tspan><tspan class="cls-170" x="452.76" y="0">ー</tspan><tspan class="cls-50" x="493.08" y="0">ジ</tspan><tspan class="cls-136" x="531.91" y="0">ョ</tspan><tspan class="cls-200" x="568.54" y="0">ン</tspan></text>
  <text class="cls-9" transform="translate(1275.06 546.11)"><tspan x="0" y="0">人種</tspan><tspan class="cls-18" x="68.48" y="0">、</tspan><tspan x="85.6" y="0">性別</tspan><tspan class="cls-17" x="154.08" y="0">、</tspan><tspan x="171.2" y="0">性的指</tspan><tspan class="cls-186" x="273.92" y="0">向</tspan><tspan class="cls-159" x="306.93" y="0">な</tspan><tspan class="cls-154" x="336.89" y="0">ど</tspan><tspan class="cls-96" x="367.23" y="0">に</tspan><tspan x="399.45" y="0">関</tspan><tspan class="cls-191" x="433.69" y="0">連</tspan><tspan class="cls-38" x="466.46" y="0">す</tspan><tspan class="cls-100" x="496.97" y="0">る</tspan><tspan class="cls-112" x="7.62" y="41.09">ダ</tspan><tspan class="cls-107" x="36.35" y="41.09">イ</tspan><tspan class="cls-76" x="63.77" y="41.09">バ</tspan><tspan class="cls-82" x="95.69" y="41.09">ー</tspan><tspan class="cls-69" x="127.5" y="41.09">シ</tspan><tspan class="cls-122" x="158.52" y="41.09">テ</tspan><tspan class="cls-14" x="187.01" y="41.09">ィ</tspan><tspan class="cls-159" x="213.95" y="41.09">と</tspan><tspan class="cls-144" x="243.91" y="41.09">イ</tspan><tspan class="cls-149" x="272.81" y="41.09">ン</tspan><tspan class="cls-106" x="303.08" y="41.09">ク</tspan><tspan class="cls-213" x="330.99" y="41.09">ル</tspan><tspan class="cls-102" x="364.27" y="41.09">ー</tspan><tspan class="cls-147" x="396.46" y="41.09">ジ</tspan><tspan class="cls-114" x="427.07" y="41.09">ョ</tspan><tspan class="cls-63" x="455.79" y="41.09">ン</tspan><tspan class="cls-189" x="486.89" y="41.09">の</tspan><tspan x="16.91" y="82.18">理</tspan><tspan class="cls-27" x="51.15" y="82.18">解</tspan><tspan class="cls-52" x="81.94" y="82.18">と</tspan><tspan x="113.3" y="82.18">推</tspan><tspan class="cls-194" x="147.54" y="82.18">進</tspan><tspan class="cls-96" x="180.41" y="82.18">に</tspan><tspan class="cls-11" x="212.63" y="82.18">焦</tspan><tspan class="cls-169" x="246.87" y="82.18">点</tspan><tspan class="cls-24" x="279.47" y="82.18">を</tspan><tspan class="cls-63" x="310.32" y="82.18">当</tspan><tspan class="cls-156" x="341.41" y="82.18">て</tspan><tspan class="cls-161" x="371.82" y="82.18">た</tspan><tspan class="cls-176" x="401.75" y="82.18">コ</tspan><tspan class="cls-121" x="434.21" y="82.18">ー</tspan><tspan class="cls-173" x="462.69" y="82.18">ス</tspan><tspan class="cls-18" x="495.05" y="82.18">。</tspan></text>
  <text class="cls-7" transform="translate(648.95 461.86)"><tspan class="cls-74" x="0" y="0">テ</tspan><tspan class="cls-12" x="41.64" y="0">ク</tspan><tspan class="cls-160" x="75.38" y="0">ノ</tspan><tspan class="cls-62" x="115.6" y="0">ロ</tspan><tspan class="cls-215" x="157.51" y="0">ジ</tspan><tspan class="cls-49" x="202.75" y="0">ー</tspan><tspan class="cls-93" x="244.53" y="0">と</tspan><tspan x="286.85" y="0">社</tspan><tspan class="cls-211" x="332.5" y="0">会の</tspan><tspan x="421.25" y="0">倫理</tspan></text>
  <text class="cls-9" transform="translate(685.16 546.11)"><tspan class="cls-152" x="0" y="0">テ</tspan><tspan class="cls-13" x="30.44" y="0">ク</tspan><tspan class="cls-134" x="54.85" y="0">ノ</tspan><tspan class="cls-41" x="84.23" y="0">ロ</tspan><tspan class="cls-165" x="114.91" y="0">ジ</tspan><tspan class="cls-203" x="148.54" y="0">ー</tspan><tspan class="cls-184" x="181.48" y="0">の</tspan><tspan class="cls-11" x="214.45" y="0">進</tspan><tspan class="cls-209" x="248.69" y="0">化</tspan><tspan class="cls-91" x="281.94" y="0">が</tspan><tspan class="cls-161" x="313.68" y="0">も</tspan><tspan class="cls-159" x="343.61" y="0">た</tspan><tspan class="cls-142" x="373.57" y="0">ら</tspan><tspan class="cls-196" x="402.67" y="0">す</tspan><tspan x="-1.51" y="41.09">社会</tspan><tspan class="cls-186" x="66.98" y="41.09">的</tspan><tspan class="cls-205" x="99.98" y="41.09">な</tspan><tspan x="133.09" y="41.09">影</tspan><tspan class="cls-195" x="167.33" y="41.09">響</tspan><tspan class="cls-36" x="200.21" y="41.09">に</tspan><tspan class="cls-54" x="230.78" y="41.09">つ</tspan><tspan class="cls-126" x="262.08" y="41.09">い</tspan><tspan class="cls-104" x="291.77" y="41.09">て</tspan><tspan x="323.85" y="41.09">考</tspan><tspan class="cls-59" x="358.09" y="41.09">察</tspan><tspan class="cls-46" x="389.49" y="41.09">し</tspan><tspan class="cls-17" x="421.19" y="41.09">、</tspan><tspan x="-53.21" y="82.18">倫理</tspan><tspan class="cls-186" x="15.27" y="82.18">的</tspan><tspan class="cls-67" x="48.28" y="82.18">な</tspan><tspan class="cls-153" x="79.3" y="82.18">ア</tspan><tspan class="cls-44" x="109.5" y="82.18">プ</tspan><tspan class="cls-199" x="141.17" y="82.18">ロ</tspan><tspan class="cls-187" x="173.91" y="82.18">ー</tspan><tspan class="cls-35" x="206.71" y="82.18">チ</tspan><tspan class="cls-99" x="237.63" y="82.18">を</tspan><tspan x="269.75" y="82.18">探</tspan><tspan class="cls-191" x="303.99" y="82.18">求</tspan><tspan class="cls-38" x="336.76" y="82.18">す</tspan><tspan class="cls-129" x="367.27" y="82.18">る</tspan><tspan class="cls-178" x="396.71" y="82.18">コ</tspan><tspan class="cls-121" x="429.17" y="82.18">ー</tspan><tspan class="cls-173" x="457.66" y="82.18">ス</tspan></text>
  <text class="cls-8" transform="translate(893.38 551.85)"><tspan x="0" y="0">。</tspan></text>
  <text class="cls-7" transform="translate(646.86 1879.66)"><tspan x="0" y="0">食品廃棄物削</tspan><tspan class="cls-81" x="273.92" y="0">減</tspan><tspan class="cls-180" x="316.66" y="0">プ</tspan><tspan class="cls-79" x="359.94" y="0">ロ</tspan><tspan class="cls-77" x="402.35" y="0">グ</tspan><tspan class="cls-139" x="444.9" y="0">ラ</tspan><tspan class="cls-203" x="483.8" y="0">ム</tspan></text>
  <text class="cls-9" transform="translate(699.82 1946.6)"><tspan x="0" y="0">食品廃棄</tspan><tspan class="cls-203" x="136.96" y="0">物</tspan><tspan class="cls-182" x="169.9" y="0">の</tspan><tspan class="cls-11" x="202.88" y="0">問</tspan><tspan class="cls-169" x="237.12" y="0">題</tspan><tspan class="cls-99" x="269.71" y="0">を</tspan><tspan x="301.83" y="0">理</tspan><tspan class="cls-59" x="336.07" y="0">解</tspan><tspan class="cls-46" x="367.47" y="0">し</tspan><tspan class="cls-18" x="399.18" y="0">、</tspan><tspan x="12.87" y="41.09">個</tspan><tspan class="cls-193" x="47.11" y="41.09">人</tspan><tspan class="cls-197" x="79.95" y="41.09">や</tspan><tspan x="112.69" y="41.09">企</tspan><tspan class="cls-209" x="146.93" y="41.09">業</tspan><tspan class="cls-166" x="180.17" y="41.09">が</tspan><tspan class="cls-69" x="213.8" y="41.09">取</tspan><tspan class="cls-31" x="244.82" y="41.09">り</tspan><tspan class="cls-203" x="275.77" y="41.09">組</tspan><tspan class="cls-84" x="308.71" y="41.09">む</tspan><tspan class="cls-58" x="340.32" y="41.09">べ</tspan><tspan class="cls-84" x="371.82" y="41.09">き</tspan><tspan x="4.31" y="82.18">具体</tspan><tspan class="cls-186" x="72.79" y="82.18">的</tspan><tspan class="cls-205" x="105.8" y="82.18">な</tspan><tspan x="138.91" y="82.18">対</tspan><tspan class="cls-171" x="173.15" y="82.18">策</tspan><tspan class="cls-100" x="205.75" y="82.18">を</tspan><tspan class="cls-208" x="237.87" y="82.18">学</tspan><tspan class="cls-28" x="270.77" y="82.18">ぶ</tspan><tspan class="cls-178" x="301.56" y="82.18">コ</tspan><tspan class="cls-121" x="334.02" y="82.18">ー</tspan><tspan class="cls-173" x="362.51" y="82.18">ス</tspan><tspan class="cls-18" x="394.86" y="82.18">。</tspan></text>
  <circle class="cls-3" cx="909.6" cy="1595.72" r="178.27"/>
  <text class="cls-7" transform="translate(1316.36 1881.3)"><tspan x="0" y="0">未</tspan><tspan class="cls-211" x="45.65" y="0">来</tspan><tspan class="cls-98" x="90.03" y="0">の</tspan><tspan class="cls-83" x="133.08" y="0">エ</tspan><tspan class="cls-75" x="175.77" y="0">ネ</tspan><tspan class="cls-168" x="218.64" y="0">ル</tspan><tspan class="cls-202" x="261.96" y="0">ギ</tspan><tspan x="306.02" y="0">ー革命</tspan></text>
  <text class="cls-9" transform="translate(1235.41 1946.6)"><tspan x="0" y="0">持続可</tspan><tspan class="cls-186" x="102.72" y="0">能</tspan><tspan class="cls-47" x="135.73" y="0">な</tspan><tspan class="cls-22" x="167.44" y="0">エ</tspan><tspan class="cls-84" x="198.63" y="0">ネ</tspan><tspan class="cls-89" x="230.23" y="0">ル</tspan><tspan class="cls-201" x="262.18" y="0">ギ</tspan><tspan class="cls-203" x="294.81" y="0">ー</tspan><tspan class="cls-189" x="327.75" y="0">の</tspan><tspan x="360.73" y="0">重要</tspan><tspan class="cls-172" x="429.21" y="0">性</tspan><tspan class="cls-99" x="461.8" y="0">を</tspan><tspan x="493.92" y="0">理</tspan><tspan class="cls-61" x="528.16" y="0">解</tspan><tspan class="cls-48" x="559.56" y="0">し</tspan><tspan class="cls-18" x="591.27" y="0">、</tspan><tspan x="12.62" y="41.09">未</tspan><tspan class="cls-203" x="46.86" y="41.09">来</tspan><tspan class="cls-90" x="79.8" y="41.09">の</tspan><tspan class="cls-72" x="111.37" y="41.09">エ</tspan><tspan class="cls-84" x="142.56" y="41.09">ネ</tspan><tspan class="cls-88" x="174.17" y="41.09">ル</tspan><tspan class="cls-201" x="206.11" y="41.09">ギ</tspan><tspan class="cls-194" x="238.74" y="41.09">ー</tspan><tspan class="cls-95" x="271.61" y="41.09">に</tspan><tspan class="cls-190" x="303.83" y="41.09">関</tspan><tspan class="cls-39" x="336.6" y="41.09">す</tspan><tspan class="cls-100" x="367.11" y="41.09">る</tspan><tspan x="399.23" y="41.09">最</tspan><tspan class="cls-203" x="433.47" y="41.09">新</tspan><tspan class="cls-189" x="466.41" y="41.09">の</tspan><tspan x="499.38" y="41.09">動</tspan><tspan class="cls-27" x="533.62" y="41.09">向</tspan><tspan class="cls-52" x="564.4" y="41.09">と</tspan><tspan class="cls-106" x="95.82" y="82.18">ソ</tspan><tspan class="cls-105" x="123.73" y="82.18">リ</tspan><tspan class="cls-20" x="151.67" y="82.18">ュ</tspan><tspan class="cls-82" x="182.83" y="82.18">ー</tspan><tspan class="cls-138" x="214.64" y="82.18">シ</tspan><tspan class="cls-113" x="244.12" y="82.18">ョ</tspan><tspan class="cls-25" x="272.85" y="82.18">ン</tspan><tspan class="cls-99" x="303.59" y="82.18">を</tspan><tspan class="cls-208" x="335.71" y="82.18">学</tspan><tspan class="cls-27" x="368.62" y="82.18">ぶ</tspan><tspan class="cls-178" x="399.4" y="82.18">コ</tspan><tspan class="cls-121" x="431.86" y="82.18">ー</tspan><tspan class="cls-173" x="460.35" y="82.18">ス</tspan><tspan class="cls-18" x="492.71" y="82.18">。</tspan></text>
  <text class="cls-4" transform="translate(0 1880.06)"><tspan x="0" y="0">教育格差解</tspan><tspan class="cls-210" x="203.81" y="0">消</tspan><tspan class="cls-80" x="243.43" y="0">の</tspan><tspan class="cls-78" x="281.59" y="0">た</tspan><tspan class="cls-97" x="319.58" y="0">め</tspan><tspan class="cls-56" x="358.06" y="0">の</tspan><tspan class="cls-40" x="395.52" y="0">ア</tspan><tspan class="cls-179" x="432.04" y="0">プ</tspan><tspan class="cls-204" x="470.69" y="0">ロ</tspan><tspan class="cls-214" x="510.1" y="0">ー</tspan><tspan class="cls-183" x="549.6" y="0">チ</tspan></text>
  <text class="cls-9" transform="translate(105.52 1946.6)"><tspan x="0" y="0">教育格</tspan><tspan class="cls-169" x="102.72" y="0">差</tspan><tspan class="cls-100" x="135.32" y="0">を</tspan><tspan x="167.44" y="0">理</tspan><tspan class="cls-61" x="201.68" y="0">解</tspan><tspan class="cls-46" x="233.08" y="0">し</tspan><tspan class="cls-15" x="264.78" y="0">、</tspan><tspan x="281.9" y="0">解</tspan><tspan class="cls-195" x="316.14" y="0">消</tspan><tspan class="cls-96" x="349.01" y="0">に</tspan><tspan class="cls-199" x="-19.33" y="41.09">向</tspan><tspan class="cls-26" x="13.4" y="41.09">け</tspan><tspan class="cls-171" x="44.15" y="41.09">た</tspan><tspan x="76.75" y="41.09">効果</tspan><tspan class="cls-186" x="145.23" y="41.09">的</tspan><tspan class="cls-67" x="178.24" y="41.09">な</tspan><tspan class="cls-153" x="209.26" y="41.09">ア</tspan><tspan class="cls-44" x="239.46" y="41.09">プ</tspan><tspan class="cls-197" x="271.13" y="41.09">ロ</tspan><tspan class="cls-187" x="303.87" y="41.09">ー</tspan><tspan class="cls-19" x="336.67" y="41.09">チ</tspan><tspan class="cls-197" x="367.83" y="41.09">や</tspan><tspan class="cls-44" x="-44.53" y="82.18">プ</tspan><tspan class="cls-67" x="-12.86" y="82.18">ロ</tspan><tspan class="cls-70" x="18.16" y="82.18">グ</tspan><tspan class="cls-118" x="49.22" y="82.18">ラ</tspan><tspan class="cls-73" x="77.54" y="82.18">ム</tspan><tspan class="cls-96" x="108.76" y="82.18">に</tspan><tspan class="cls-1" x="140.98" y="82.18">焦</tspan><tspan class="cls-171" x="175.23" y="82.18">点</tspan><tspan class="cls-23" x="207.82" y="82.18">を</tspan><tspan class="cls-71" x="238.67" y="82.18">当</tspan><tspan class="cls-156" x="269.76" y="82.18">て</tspan><tspan class="cls-162" x="300.17" y="82.18">た</tspan><tspan class="cls-181" x="330.1" y="82.18">コ</tspan><tspan class="cls-121" x="362.56" y="82.18">ー</tspan><tspan class="cls-175" x="391.05" y="82.18">ス</tspan></text>
  <g>
    <circle class="cls-3" cx="1539.61" cy="1594.09" r="178.27"/>
    <g>
      <path class="cls-216" d="M1521.35,1510.79c-9.75,4.04-18.47,9.89-26.02,17.39-7.5,7.55-13.39,16.27-17.39,26.02-2.92,7.01.4,15.01,7.41,17.93,1.71.72,3.51,1.03,5.26,1.03,5.39,0,10.47-3.19,12.67-8.49,2.65-6.34,6.52-12.09,11.46-17.08,4.99-4.94,10.7-8.81,17.08-11.46,7.01-2.88,10.34-10.92,7.46-17.93-2.92-7.01-10.97-10.29-17.93-7.42Z"/>
      <polygon class="cls-216" points="1507.65 1708.8 1572.5 1708.8 1575.69 1692.13 1504.41 1692.13 1507.65 1708.8"/>
      <path class="cls-216" d="M1539.25,1732.03c11.7,0,21.18-7.05,21.18-15.74h-42.37c0,8.69,9.48,15.74,21.18,15.74Z"/>
      <path class="cls-216" d="M1447.7,1657.14c1.88,2.03,3.84,4,5.85,5.91l13.75-15.06c-1.51-1.43-2.98-2.92-4.4-4.44l-15.2,13.59Z"/>
      <path class="cls-216" d="M1414.42,1567.28c-.06,1.54-.09,3.09-.09,4.65,0,1.24.02,2.48.06,3.73l14.54-.75h5.83c-.03-.99-.04-1.99-.04-2.98,0-1.17.02-2.34.06-3.51l-20.35-1.14Z"/>
      <path class="cls-216" d="M1468,1495.38l-13.62-15.17c-2.04,1.9-4.01,3.86-5.9,5.85l15.07,13.73c1.44-1.52,2.93-2.99,4.45-4.41Z"/>
      <path class="cls-216" d="M1539.69,1471.16c1.15,0,2.29.02,3.42.05l1.08-20.36c-1.51-.05-3.03-.08-4.53-.08-1.29,0-2.56.02-3.8.06l1.26,20.36c.86-.02,1.71-.03,2.56-.03Z"/>
      <path class="cls-216" d="M1664.81,1568.14l-20.36,1.05c.03.98.04,1.95.04,2.92,0,1.24-.02,2.49-.07,3.72l20.36,1.18c.07-1.63.1-3.26.1-4.9,0-1.31-.02-2.62-.07-3.97Z"/>
      <path class="cls-216" d="M1611.76,1495.9c1.52,1.44,2.99,2.92,4.4,4.43l15.18-13.62c-1.89-2.03-3.85-4-5.87-5.91l-13.71,15.1Z"/>
      <path class="cls-216" d="M1611.07,1648.8l13.57,15.22c2.03-1.87,4.01-3.83,5.92-5.85l-15.05-13.75c-1.43,1.51-2.92,2.98-4.44,4.39Z"/>
      <path class="cls-216" d="M1596.13,1519.42c-14.47-14.47-34.47-23.41-56.53-23.41s-42.06,8.94-56.49,23.41c-14.47,14.47-23.41,34.47-23.41,56.53,0,23.19,11.59,50.42,26.11,64.53,12,11.68,18.25,20.04,21.48,25.88h-8.58l3.59,18.56h75.54l3.55-18.56h-9.48c3.24-5.84,9.48-14.2,21.48-25.88,14.52-14.11,26.11-41.34,26.11-64.53s-8.94-42.06-23.37-56.53ZM1532.19,1655.49c-.26.1-.52.17-.78.2-1.07.13-2.13-.29-2.58-1.11l-21.03-37.42c-.57-1.02,0-2.26,1.3-2.78,1.29-.52,2.8-.11,3.37.9l21.03,37.42c.57,1.02,0,2.26-1.3,2.78ZM1531.83,1536.14c-6.38,2.65-12.09,6.52-17.08,11.46-4.94,4.99-8.81,10.74-11.46,17.08-2.2,5.3-7.28,8.49-12.67,8.49-1.75,0-3.55-.31-5.26-1.03-7.01-2.92-10.34-10.92-7.41-17.93,4-9.75,9.89-18.47,17.39-26.02,7.55-7.51,16.27-13.35,26.02-17.39,6.97-2.88,15.01.4,17.93,7.41,2.88,7.01-.45,15.06-7.46,17.93ZM1571.37,1615.65l-23.26,38.47c-.51.84-1.59,1.31-2.65,1.23-.26-.02-.52-.07-.77-.16-1.26-.46-1.77-1.68-1.13-2.72l23.25-38.47c.63-1.05,2.17-1.52,3.43-1.07,1.26.46,1.77,1.68,1.14,2.72Z"/>
    </g>
  </g>
  <g>
    <circle class="cls-3" cx="296.14" cy="178.27" r="178.27"/>
    <g>
      <path class="cls-216" d="M403.2,169.17c-2.15-2.37-4.74-4.2-7.67-5.38-2.92-1.23-6.11-1.87-9.45-1.87s-6.39.59-9.45,1.6c-3.01,1.05-5.98,2.51-8.53,4.47l-.28.18-.09.04-.23.23c-.28.23-.82.64-1.55,1.14-1.14.86-2.74,1.96-4.61,3.29-7.49-26.65-26.51-40.38-55.9-41.59.52-9.19,2.09-17.99,6.11-19.84,12.51-5.78,35.61-4.81,51-18.29,15.39-13.49-9.62-36.58-40.42-13.47-17.01,12.75-22.56,34.59-24.13,51.6-29.87,1.27-44.33,20.29-49.66,32.46-.69.14-1.33.27-1.96.41-9.23,2.19-16.34,5.75-22.09,9.81-5.75,4.06-10.13,8.58-14.01,12.5-.78.82-1.55,1.64-2.37,2.42l-19.63,17.16c-3.7,3.29-5.84,7.94-5.84,12.92v57.87c0,5.11,3.01,9.81,7.67,11.91,1.73.78,3.56,1.19,5.47,1.19,3.15,0,6.2-1.14,8.54-3.19l36.6-31.35,57.63,10.45c1.55.27,3.2.45,4.8.45,5.61,0,11-1.73,15.56-4.93,4.06-2.83,23.23-16.2,42.17-29.48,9.54-6.66,18.99-13.28,26.42-18.57,3.7-2.65,6.89-4.93,9.36-6.76,1.27-.87,2.33-1.64,3.15-2.28.86-.64,1.46-1.1,1.92-1.51v.04l.14-.13.09-.05.18-.18c2.42-2.23,4.3-4.79,5.62-7.62,1.33-2.83,2.01-5.93,2.05-9.03v-.32c0-5.93-2.37-11.68-6.61-16.29ZM394.62,194.23c-5.65,4.7-82.28,57.96-82.28,57.96-3.51,2.46-7.8,3.42-12,2.69l-60.01-10.91c-1.78-.32-3.57.14-4.93,1.32l-38.51,32.99c-.6.5-1.42.64-2.15.32-.69-.32-1.14-1.05-1.14-1.78v-57.87c0-1.73.73-3.37,2.05-4.47l19.9-17.43c7.75-7.76,14.97-16.52,29.57-21.04,6.11-1.87,13.51-3.01,22.77-3.01h50.2c6.93,0,12.55,5.61,12.55,12.55s-5.62,12.55-12.55,12.55h-34.49l.13.09c-2.47-.09-4.52,1.83-4.61,4.29-.09,2.46,1.83,4.56,4.29,4.61l.19-.04h46.82s20.17-13.24,33.45-22.36c5.11-3.47,9.22-6.39,10.77-7.67,6.16-4.61,15.42-5.75,20.35-.32,4.98,5.38,5.03,12.55-.37,17.52Z"/>
      <path class="cls-216" d="M261.51,101.81c14.77,3.7,26.95,3.85,34.65,14.44,0,0,2.89-10.59,4.82-15.4,0,0-17.27-33.82-41.38-32.72-21.19.96-21.19,27.91,1.92,33.68Z"/>
    </g>
  </g>
  <g>
    <circle class="cls-3" cx="296.14" cy="1594.09" r="178.27"/>
    <g>
      <path class="cls-216" d="M234.45,1533.21c9.61,0,17.4-7.79,17.4-17.4s-7.79-17.4-17.4-17.4-17.4,7.79-17.4,17.4,7.79,17.4,17.4,17.4Z"/>
      <path class="cls-216" d="M283.25,1499.58h113.33v92.24h-113.33v-7.7c-1.48-.02-2.97-.15-4.42-.42l-.47-.09-4.78-1.32v19.21h132.69v-111.6h-132.69v46.35l9.68,3.38v-40.06Z"/>
      <path class="cls-216" d="M286.18,1643.35c0,9.61,7.79,17.4,17.4,17.4s17.4-7.79,17.4-17.4-7.79-17.4-17.4-17.4-17.4,7.79-17.4,17.4Z"/>
      <path class="cls-216" d="M303.58,1669.45c-16.32,0-30.82,5.44-34.44,23.54l.29,11.97h68.29l.29-11.97c-3.61-18.1-18.11-23.54-34.43-23.54Z"/>
      <path class="cls-216" d="M358.79,1643.35c0,9.61,7.79,17.4,17.4,17.4s17.4-7.79,17.4-17.4-7.79-17.4-17.4-17.4-17.4,7.79-17.4,17.4Z"/>
      <path class="cls-216" d="M376.19,1669.45c-16.32,0-30.82,5.44-34.44,23.54l.29,11.97h68.29l.29-11.97c-3.62-18.1-18.11-23.54-34.44-23.54Z"/>
      <path class="cls-216" d="M291.57,1571.41l28.08-13.44c3.79-1.6,5.56-5.97,3.96-9.76-1.6-3.79-5.97-5.56-9.76-3.96l-25.25,8.63-22.85-7.99c-3.33-1.17-6.79-1.92-10.29-2.26l-15.4,23.74v-12.71h-9.39v12.8l-17.25-20.82c-9.27,3.83-16.3,11.09-18.81,23.62l-12.78,53.37c-.9,4.02,1.63,8,5.65,8.9,4.01.9,7.99-1.64,8.89-5.65l13.45-35.56,3.48,105.82c0,4.88,3.95,8.83,8.83,8.83s8.83-3.95,8.83-8.83l3.51-63.1,3.5,63.1c0,4.88,3.96,8.83,8.83,8.83s8.83-3.95,8.83-8.83l4.97-128.58,20.16,5.59c3.7.67,7.51.06,10.81-1.74Z"/>
      <rect class="cls-216" x="230.67" y="1542.96" width="9.39" height="6.58"/>
    </g>
  </g>
  <g>
    <circle class="cls-3" cx="1345.46" cy="901.99" r="178.27"/>
    <g>
      <path class="cls-216" d="M1347.11,817.92c8.81-11.49,6.64-27.95-4.86-36.76-11.49-8.82-27.95-6.65-36.76,4.84-8.82,11.5-6.64,27.94,4.85,36.76,11.49,8.82,27.95,6.65,36.77-4.84Z"/>
      <path class="cls-216" d="M1413.78,887.32l-34.18-53.2c-5.8-8.94-17.74-11.5-26.69-5.7-8.94,5.79-11.5,17.73-5.7,26.68h0s30.41,47.42,30.41,47.42l-30.93,32.13c-12.58,10.64-7.49,24.46-5.66,32.81l16.45,43.45c1.51,6.88,8.31,11.23,15.2,9.73,6.88-1.51,11.23-8.32,9.72-15.2l-8.74-49.95,32.37-25.23c17.07-10.7,18.47-25.87,7.75-42.95Z"/>
      <path class="cls-216" d="M1298.67,861.09c-15.66,0-28.35,12.7-28.35,28.36v131.5c0,4.15,3.37,7.52,7.52,7.52s7.52-3.37,7.52-7.52v-131.5c0-3.7,1.47-6.98,3.9-9.41,2.43-2.42,5.71-3.9,9.41-3.9,3.69,0,6.98,1.48,9.41,3.9,2.42,2.43,3.9,5.72,3.9,9.41,0,3.95-1.7,7.45-4.42,9.9-3.09,2.78-3.35,7.53-.57,10.62,2.78,3.09,7.53,3.35,10.62.58,5.76-5.16,9.41-12.73,9.41-21.1,0-15.66-12.69-28.35-28.35-28.36Z"/>
    </g>
  </g>
  <g>
    <path class="cls-216" d="M646.98,942.03l-14.3-40.54s.07,0,.1,0c9.84.17,12.3-5.12,13.58-6.96,1.77-2.53-1.97-5.06-3.94-3.38-1.97,1.69-7.29,5.23-17.52.5-9.23-4.26-25.41-11.67-34.86-13.09v-9.71c0-2.19-1.77-3.96-3.96-3.96s-3.96,1.77-3.96,3.96v9.71c-9.45,1.42-25.63,8.83-34.86,13.09-10.24,4.73-15.55,1.18-17.52-.5-1.97-1.69-5.71.84-3.94,3.38,1.28,1.83,3.74,7.12,13.58,6.96.03,0,.07,0,.1,0l-14.3,40.54h-2.84c2.86,9.47,11.65,16.36,22.05,16.36s19.19-6.9,22.05-16.36h-2.83l-15.02-42.6c9.26-2.85,22.3-7.73,33.52-8.48v6.03h-2.12v66.65h-3.29v5.94h-6.19c-5.81,0-5.64,8.21-5.64,8.21-4.79,0-7.18,3.76-7.18,8.38h56.77c0-4.62-2.39-8.38-7.18-8.38,0,0,.17-8.21-5.64-8.21h-6.19v-5.94h-3.29v-66.65h-2.12v-6.03c11.22.75,24.26,5.63,33.52,8.48l-15.03,42.6h-2.83c2.86,9.47,11.65,16.36,22.05,16.36s19.19-6.9,22.05-16.36h-2.84ZM557.52,942.03h-26.21l13.11-37.16,13.11,37.16ZM614.66,942.03l13.11-37.16,13.11,37.16h-26.21Z"/>
    <g>
      <path class="cls-216" d="M472.97,954.08l-.09.08s0,0,0,0l.09-.08Z"/>
      <path class="cls-216" d="M393.46,846.94c9.85-11.52,24.67-19.37,43.66-20.51,1.54-.09,3.08-.14,4.6-.14,15.97,0,30.66,5.19,41.43,14.7,10.78,9.5,17.49,23.4,17.46,40.05,0,.38,0,.75,0,1.13l.02,2.01,13.71,24.21c.74,1.31,1.11,2.76,1.11,4.22,0,1.22-.26,2.44-.78,3.58-1.11,2.42-3.28,4.15-5.86,4.75v.02s-6.3,1.74-6.3,1.74l-2.49,24.02h-.02c-.18,3.5-1.74,6.78-4.39,9.09-2.36,2.05-5.37,3.17-8.46,3.17-.31,0-.62-.03-.93-.05l-7.14.57-.36-.04h-.11c-.27,0-.53.09-.73.27h-.01c-.23.22-.36.52-.36.82v24.61h-66.7v-17.89c0-1.62-.32-4.84-.95-7.94-.32-1.55-.71-3.1-1.15-4.44-.44-1.34-.94-2.48-1.37-3.14-4.44-7.15-10.71-13.02-16.45-21.31-5.74-8.29-10.63-19.04-11.97-35.36-.17-2.05-.26-4.09-.26-6.13,0-15.47,4.94-30.49,14.81-42ZM386.35,894.44c1.3,15.16,5.54,24.24,10.68,31.74,5.13,7.5,11.47,13.39,16.64,21.59.9,1.45,1.56,3.05,2.13,4.76.84,2.56,1.44,5.34,1.85,7.94.41,2.6.62,4.96.63,6.78v10.42h51.75v-17.14c0-2.43,1.04-4.75,2.85-6.38,1.58-1.42,3.63-2.19,5.72-2.19.15,0,.3.02.45.03l7.14-.57.35.04.61.03c1.3,0,2.56-.47,3.55-1.33,1.14-.99,1.82-2.42,1.86-3.94v-.14s3.03-29.23,3.03-29.23l11.36-3.13.14-.03c.35-.07.63-.3.78-.62l.1-.46-.14-.54-14.66-25.89-.03-4.04v-.05c0-.35,0-.7,0-1.04-.02-14.66-5.72-26.27-14.94-34.45-9.23-8.16-22.11-12.83-36.48-12.83-1.37,0-2.75.04-4.14.13l-.23-3.73.23,3.73c-17.2,1.08-29.86,7.95-38.45,17.92-8.57,9.98-13.01,23.24-13.01,37.13,0,1.83.08,3.66.23,5.5Z"/>
    </g>
  </g>
  <g>
    <circle class="cls-3" cx="1539.6" cy="178.27" r="178.27"/>
    <g>
      <path class="cls-216" d="M1478.96,216.79c-.04-.45-.18-.86-.18-1.3v-3.82c0-1.82.3-3.61.89-5.31,0,0,9.52-12.74,14.02-27.71-4.93-10.4-9.4-23.34-9.4-36.17,0-2.98.22-5.86.52-8.7-6.42-6.73-15.1-10.54-24.69-10.54-19.79,0-35.86,16.15-35.86,41.25,0,20.08,16.34,41.88,16.34,41.88.58,1.7.87,3.5.87,5.31v3.82c0,4.76-2.78,9.1-7.11,11.08l-25.95,10.6c-6.03,2.78-10.32,8.32-11.52,14.84l-.45,5.71c-.23,2.97.79,5.9,2.81,8.08,2.02,2.19,4.86,3.43,7.84,3.43h42.41l1.74-22.35.11-.6c2.12-11.72,9.87-21.68,20.69-26.66l6.9-2.81Z"/>
      <path class="cls-216" d="M1682.31,252.01c-1.19-6.52-5.48-12.06-11.51-14.84l-25.96-10.6c-4.33-1.98-7.1-6.32-7.1-11.08v-3.82c0-1.82.29-3.61.88-5.31,0,0,16.33-21.8,16.33-41.88,0-25.1-16.05-41.25-35.88-41.25-9.57,0-18.25,3.81-24.69,10.56.31,2.83.53,5.71.53,8.69,0,12.82-4.47,25.76-9.39,36.16,4.49,14.97,14.03,27.72,14.03,27.72.58,1.7.88,3.5.88,5.31v3.82c0,.45-.15.86-.19,1.3l6.43,2.62c11.27,5.16,19.02,15.12,21.17,26.84l.11.61,1.73,22.36h42.43c2.98,0,5.82-1.23,7.83-3.43,2.03-2.18,3.04-5.1,2.81-8.08l-.45-5.71Z"/>
      <path class="cls-216" d="M1602.17,230.45l-31.41-12.84c-5.24-2.41-8.59-7.66-8.59-13.41v-4.63c0-2.18.35-4.36,1.07-6.43,0,0,19.75-26.36,19.75-50.67,0-30.38-19.43-49.91-43.4-49.91s-43.4,19.53-43.4,49.91c0,24.31,19.77,50.67,19.77,50.67.71,2.07,1.07,4.25,1.07,6.43v4.63c0,5.75-3.37,10.99-8.61,13.41l-31.41,12.84c-7.3,3.35-12.5,10.06-13.93,17.96l-1.62,20.81h156.24l-1.6-20.81c-1.45-7.9-6.65-14.61-13.95-17.96Z"/>
    </g>
  </g>
  <g>
    <circle class="cls-3" cx="903.57" cy="178.27" r="178.27"/>
    <g>
      <path class="cls-216" d="M989.59,137.5h-9.43v58.36h9.43c6.4,0,11.58-5.19,11.58-11.58v-35.2c0-6.4-5.18-11.58-11.58-11.58Z"/>
      <path class="cls-216" d="M993.04,245.44c0-6.93-2.83-13.27-7.38-17.81-4.54-4.55-10.87-7.38-17.81-7.38-6.94,0-13.27,2.83-17.81,7.38-4.55,4.54-7.38,10.87-7.38,17.81v8.87h-8.12v34.92c0,8.9,7.22,16.12,16.12,16.12h34.38c8.9,0,16.12-7.22,16.12-16.12v-34.92h-8.13v-8.87h0ZM954.9,245.44c0-1.81.36-3.5,1.02-5.04.98-2.32,2.63-4.31,4.7-5.71,2.08-1.4,4.54-2.21,7.25-2.21,1.81,0,3.5.36,5.04,1.01,2.32.98,4.31,2.63,5.71,4.7,1.4,2.08,2.21,4.53,2.21,7.24v8.87h-25.92v-8.87ZM967.86,285.46c-4.6,0-8.33-3.73-8.33-8.33s3.73-8.33,8.33-8.33,8.33,3.73,8.33,8.33c0,4.6-3.73,8.33-8.33,8.33Z"/>
      <path class="cls-216" d="M984.63,71.37h-155.6c-9.14,0-16.54,7.41-16.54,16.54v184.78c0,9.14,7.4,16.54,16.54,16.54h96.18v-44.26h8.02l.27-2.82c.29-3.1.99-6.09,2.05-8.92-1.74,2.43-4.24,4.01-7.34,4.01h-67.58c-8.94,0-12.99-13-7.82-22.18,3.89-6.93,10.27-14.77,20.66-19.23,5.94,4.15,13.16,6.6,20.95,6.6s15-2.45,20.94-6.6c10.39,4.46,16.77,12.31,20.67,19.23,2.42,4.29,2.8,9.41,1.62,13.65,1.55-2.78,3.47-5.36,5.8-7.68,6.5-6.52,15.17-10.11,24.39-10.11,1.4,0,2.78.11,4.15.27v-81.47h17.6c6.4,0,11.58-5.18,11.58-11.58v-30.24c0-9.13-7.41-16.54-16.54-16.54ZM922.05,166.1c0,15.26-12.37,27.63-27.63,27.63s-27.64-12.37-27.64-27.63v-6.62c0-15.26,12.37-27.64,27.64-27.64s27.63,12.37,27.63,27.64v6.62Z"/>
    </g>
  </g>
  <g>
    <g>
      <g>
        <path class="cls-216" d="M828.38,1608.46c.77,0,1.39-.62,1.39-1.39v-10.17c0-.76-.62-1.39-1.39-1.39s-1.38.62-1.38,1.39v10.17c0,.77.62,1.39,1.38,1.39Z"/>
        <path class="cls-216" d="M861.61,1632.48c3.88-1.68,6.66-4.64,7.39-6.82l2.85-11.38c.33-.98.11-2-.58-2.62-.69-.62-1.73-.73-2.67-.3l-10.03,4.58c-1.6.73-4.12,2.53-5.05,4.97l-3.75,9.69c-.09,0-.18-.03-.27-.03s-.18.02-.27.03l-3.75-9.69c-.92-2.44-3.45-4.24-5.05-4.97l-10.03-4.58c-.95-.43-1.98-.32-2.67.3s-.91,1.63-.58,2.62l2.85,11.38c.74,2.18,3.51,5.14,7.39,6.82,3.57,1.54,7.02,2.37,9.58,2.82v12.96l-1.5-3.86c-.92-2.44-3.45-4.24-5.05-4.97l-10.03-4.58c-.95-.43-1.98-.32-2.67.3-.69.62-.91,1.63-.58,2.62l2.85,11.38c.74,2.18,3.51,5.14,7.39,6.82,3.57,1.54,7.02,2.37,9.58,2.82v12.96l-1.5-3.86c-.92-2.44-3.45-4.24-5.05-4.97l-10.03-4.58c-.95-.43-1.98-.32-2.67.3-.69.62-.91,1.63-.58,2.62l2.85,11.38c.74,2.18,3.51,5.14,7.39,6.82,3.57,1.54,7.02,2.37,9.58,2.82v6.05c0,1.39,1.13,2.52,2.52,2.52s2.52-1.13,2.52-2.52v-6.05c2.57-.45,6.02-1.28,9.59-2.82,3.88-1.68,6.66-4.64,7.39-6.82l2.85-11.38c.33-.98.11-2-.58-2.62-.69-.62-1.73-.73-2.67-.3l-10.03,4.58c-1.6.73-4.12,2.53-5.05,4.97l-1.5,3.87v-12.97c2.57-.45,6.02-1.28,9.59-2.82,3.88-1.68,6.66-4.64,7.39-6.82l2.85-11.38c.33-.98.11-2-.58-2.62-.69-.62-1.73-.73-2.67-.3l-10.03,4.58c-1.6.73-4.12,2.53-5.05,4.97l-1.5,3.87v-12.97c2.57-.45,6.02-1.28,9.59-2.82Z"/>
        <path class="cls-216" d="M870.62,1595.52c-.77,0-1.39.62-1.39,1.39v10.17c0,.77.62,1.39,1.39,1.39s1.39-.62,1.39-1.39v-10.17c0-.76-.62-1.39-1.39-1.39Z"/>
        <path class="cls-216" d="M849.44,1589.21c.77,0,1.39-.62,1.39-1.39v-10.17c0-.77-.62-1.39-1.39-1.39s-1.39.62-1.39,1.39v10.17c0,.77.62,1.39,1.39,1.39Z"/>
        <path class="cls-216" d="M838.08,1599.7c.77,0,1.39-.62,1.39-1.39v-10.17c0-.77-.62-1.39-1.39-1.39s-1.39.62-1.39,1.39v10.17c0,.77.62,1.39,1.39,1.39Z"/>
        <path class="cls-216" d="M861,1599.7c.77,0,1.39-.62,1.39-1.39v-10.17c0-.77-.62-1.39-1.39-1.39s-1.39.62-1.39,1.39v10.17c0,.77.62,1.39,1.39,1.39Z"/>
        <path class="cls-216" d="M847.16,1616.84c.48.82,1.32,1.32,2.23,1.32.91,0,1.75-.5,2.23-1.32l5.62-9.63c.95-1.63.95-3.7,0-5.33l-5.62-9.63c-.48-.82-1.32-1.32-2.23-1.32-.91,0-1.75.5-2.23,1.32l-5.62,9.63c-.95,1.64-.95,3.7,0,5.33l5.62,9.63Z"/>
      </g>
      <g>
        <path class="cls-216" d="M873.9,1560.83c.77,0,1.39-.62,1.39-1.39v-10.17c0-.76-.62-1.39-1.39-1.39s-1.38.62-1.38,1.39v10.17c0,.77.62,1.39,1.38,1.39Z"/>
        <path class="cls-216" d="M907.13,1584.85c3.88-1.68,6.66-4.64,7.39-6.82l2.85-11.38c.33-.98.11-2-.58-2.62-.69-.62-1.73-.73-2.67-.3l-10.03,4.58c-1.6.73-4.12,2.53-5.05,4.97l-3.75,9.69c-.09,0-.18-.03-.27-.03s-.18.02-.27.03l-3.75-9.69c-.92-2.44-3.45-4.24-5.05-4.97l-10.03-4.58c-.95-.43-1.98-.32-2.67.3s-.91,1.63-.58,2.62l2.85,11.38c.74,2.18,3.51,5.14,7.39,6.82,3.57,1.54,7.02,2.37,9.58,2.82v12.96l-1.5-3.86c-.92-2.44-3.45-4.24-5.05-4.97l-10.03-4.58c-.95-.43-1.98-.32-2.67.3-.69.62-.91,1.63-.58,2.62l2.85,11.38c.74,2.18,3.51,5.14,7.39,6.82,3.57,1.54,7.02,2.37,9.58,2.82v12.96l-1.5-3.86c-.92-2.44-3.45-4.24-5.05-4.97l-10.03-4.58c-.95-.43-1.98-.32-2.67.3-.69.62-.91,1.63-.58,2.62l2.85,11.38c.74,2.18,3.51,5.14,7.39,6.82,3.57,1.54,7.02,2.37,9.58,2.82v6.05c0,1.39,1.13,2.52,2.52,2.52s2.52-1.13,2.52-2.52v-6.05c2.57-.45,6.02-1.28,9.59-2.82,3.88-1.68,6.66-4.64,7.39-6.82l2.85-11.38c.33-.98.11-2-.58-2.62-.69-.62-1.73-.73-2.67-.3l-10.03,4.58c-1.6.73-4.12,2.53-5.05,4.97l-1.5,3.87v-12.97c2.57-.45,6.02-1.28,9.59-2.82,3.88-1.68,6.66-4.64,7.39-6.82l2.85-11.38c.33-.98.11-2-.58-2.62-.69-.62-1.73-.73-2.67-.3l-10.03,4.58c-1.6.73-4.12,2.53-5.05,4.97l-1.5,3.87v-12.97c2.57-.45,6.02-1.28,9.59-2.82Z"/>
        <path class="cls-216" d="M916.14,1547.88c-.77,0-1.39.62-1.39,1.39v10.17c0,.77.62,1.39,1.39,1.39s1.39-.62,1.39-1.39v-10.17c0-.76-.62-1.39-1.39-1.39Z"/>
        <path class="cls-216" d="M894.96,1541.57c.77,0,1.39-.62,1.39-1.39v-10.17c0-.77-.62-1.39-1.39-1.39s-1.39.62-1.39,1.39v10.17c0,.77.62,1.39,1.39,1.39Z"/>
        <path class="cls-216" d="M883.6,1552.06c.77,0,1.39-.62,1.39-1.39v-10.17c0-.77-.62-1.39-1.39-1.39s-1.39.62-1.39,1.39v10.17c0,.77.62,1.39,1.39,1.39Z"/>
        <path class="cls-216" d="M906.53,1552.06c.77,0,1.39-.62,1.39-1.39v-10.17c0-.77-.62-1.39-1.39-1.39s-1.39.62-1.39,1.39v10.17c0,.77.62,1.39,1.39,1.39Z"/>
        <path class="cls-216" d="M892.68,1569.2c.48.82,1.32,1.32,2.23,1.32.91,0,1.75-.5,2.23-1.32l5.62-9.63c.95-1.63.95-3.7,0-5.33l-5.62-9.63c-.48-.82-1.32-1.32-2.23-1.32-.91,0-1.75.5-2.23,1.32l-5.62,9.63c-.95,1.64-.95,3.7,0,5.33l5.62,9.63Z"/>
      </g>
      <g>
        <path class="cls-216" d="M782.86,1560.83c.77,0,1.39-.62,1.39-1.39v-10.17c0-.76-.62-1.39-1.39-1.39s-1.38.62-1.38,1.39v10.17c0,.77.62,1.39,1.38,1.39Z"/>
        <path class="cls-216" d="M816.09,1584.85c3.88-1.68,6.66-4.64,7.39-6.82l2.85-11.38c.33-.98.11-2-.58-2.62-.69-.62-1.73-.73-2.67-.3l-10.03,4.58c-1.6.73-4.12,2.53-5.05,4.97l-3.75,9.69c-.09,0-.18-.03-.27-.03s-.18.02-.27.03l-3.75-9.69c-.92-2.44-3.45-4.24-5.05-4.97l-10.03-4.58c-.95-.43-1.98-.32-2.67.3s-.91,1.63-.58,2.62l2.85,11.38c.74,2.18,3.51,5.14,7.39,6.82,3.57,1.54,7.02,2.37,9.58,2.82v12.96l-1.5-3.86c-.92-2.44-3.45-4.24-5.05-4.97l-10.03-4.58c-.95-.43-1.98-.32-2.67.3-.69.62-.91,1.63-.58,2.62l2.85,11.38c.74,2.18,3.51,5.14,7.39,6.82,3.57,1.54,7.02,2.37,9.58,2.82v12.96l-1.5-3.86c-.92-2.44-3.45-4.24-5.05-4.97l-10.03-4.58c-.95-.43-1.98-.32-2.67.3-.69.62-.91,1.63-.58,2.62l2.85,11.38c.74,2.18,3.51,5.14,7.39,6.82,3.57,1.54,7.02,2.37,9.58,2.82v6.05c0,1.39,1.13,2.52,2.52,2.52s2.52-1.13,2.52-2.52v-6.05c2.57-.45,6.02-1.28,9.59-2.82,3.88-1.68,6.66-4.64,7.39-6.82l2.85-11.38c.33-.98.11-2-.58-2.62-.69-.62-1.73-.73-2.67-.3l-10.03,4.58c-1.6.73-4.12,2.53-5.05,4.97l-1.5,3.87v-12.97c2.57-.45,6.02-1.28,9.59-2.82,3.88-1.68,6.66-4.64,7.39-6.82l2.85-11.38c.33-.98.11-2-.58-2.62-.69-.62-1.73-.73-2.67-.3l-10.03,4.58c-1.6.73-4.12,2.53-5.05,4.97l-1.5,3.87v-12.97c2.57-.45,6.02-1.28,9.59-2.82Z"/>
        <path class="cls-216" d="M825.1,1547.88c-.77,0-1.39.62-1.39,1.39v10.17c0,.77.62,1.39,1.39,1.39s1.39-.62,1.39-1.39v-10.17c0-.76-.62-1.39-1.39-1.39Z"/>
        <path class="cls-216" d="M803.92,1541.57c.77,0,1.39-.62,1.39-1.39v-10.17c0-.77-.62-1.39-1.39-1.39s-1.39.62-1.39,1.39v10.17c0,.77.62,1.39,1.39,1.39Z"/>
        <path class="cls-216" d="M792.56,1552.06c.77,0,1.39-.62,1.39-1.39v-10.17c0-.77-.62-1.39-1.39-1.39s-1.39.62-1.39,1.39v10.17c0,.77.62,1.39,1.39,1.39Z"/>
        <path class="cls-216" d="M815.48,1552.06c.77,0,1.39-.62,1.39-1.39v-10.17c0-.77-.62-1.39-1.39-1.39s-1.39.62-1.39,1.39v10.17c0,.77.62,1.39,1.39,1.39Z"/>
        <path class="cls-216" d="M801.64,1569.2c.48.82,1.32,1.32,2.23,1.32.91,0,1.75-.5,2.23-1.32l5.62-9.63c.95-1.63.95-3.7,0-5.33l-5.62-9.63c-.48-.82-1.32-1.32-2.23-1.32-.91,0-1.75.5-2.23,1.32l-5.62,9.63c-.95,1.64-.95,3.7,0,5.33l5.62,9.63Z"/>
      </g>
    </g>
    <path class="cls-216" d="M1043.55,1615.95l-44.73,45.22c-1.77,1.79-4.17,2.79-6.69,2.79s-4.92-1-6.68-2.79l-44.73-45.22c-3.65-3.69-3.62-9.65.07-13.3,3.69-3.65,9.64-3.62,13.3.07l28.64,28.95v-72.04c0-5.19,4.21-9.4,9.4-9.4s9.4,4.21,9.4,9.4v72.04l28.64-28.95c3.65-3.69,9.61-3.72,13.3-.07,3.69,3.65,3.72,9.61.07,13.3Z"/>
  </g>
</svg>