<?xml version="1.0" encoding="UTF-8"?>
<svg id="_レイヤー_1" data-name="レイヤー 1" xmlns="http://www.w3.org/2000/svg" viewBox="0 0 739.69 860.14">
  <defs>
    <style>
      .cls-1 {
        fill: #92c7cf;
      }

      .cls-2 {
        fill: #fefefd;
      }
    </style>
  </defs>
  <g>
    <path class="cls-1" d="M122.11,595.86C28.29,516.49-17.4,392.77,6.21,270.47,34.54,123.71,161.68,10.1,310.72,1.82l4.05-1.75h38.46l48.83,7.21c159.39,32.59,271.73,179.51,265.91,342.62,19.36,46.28,46.25,91.64,65.13,137.82,4.88,11.94,9.98,21.42,3.39,34.23-13.34,25.93-79.13,26.67-82.34,63.42-2.54,28.84,3.71,64.32-.08,92.3-2.27,16.8-17.24,23.36-32.41,24.56-44.75,3.53-98.89-5.39-142.22-.1-12.83,1.58-22.86,13.45-24.21,26.07-3.58,33.16,4.92,76.96-.4,108.79-1.87,11.15-11.91,18.68-21.34,23.08h-13.38l-282.1-120.6c-8.04-4.54-14.03-11.79-15.58-21.3l-.32-122.31ZM312.76,108.08c-160.81,12.7-255.63,192.76-179.46,335.47,83.01,155.54,302.11,161.47,394.52,11.57,99.16-160.83-29.18-361.74-215.06-347.04Z"/>
    <path class="cls-2" d="M312.76,108.08c185.88-14.7,314.22,186.21,215.06,347.04-92.4,149.9-311.51,143.97-394.52-11.57-76.17-142.71,18.64-322.77,179.46-335.47Z"/>
  </g>
  <g>
    <path class="cls-1" d="M491.33,310.7l-.9,17.99-19.8,2.82c-1.12,4.57-5.17,9.93-4.31,14.65,1.54,8.57,21.39,12.97.99,26.25-6.61,4.3-10.95-6.45-16.77-9.05-5-2.25-11.71,3.38-16.52,4.74l-2.98,20.43c-4.16-.22-14.61,1.56-17.29-1.09-4.77-4.74,1.97-16.21-6.14-21.11-14.68-8.87-15.58,1.61-27.42,7.66-2.16,0-8.33-6.11-9.68-8.03-7.21-10.16,9.8-14.98,8.85-21.75-.2-1.48-5.23-12.73-6.25-13.35l-18.78-3.19c-6.91-24.79,2.54-16.86,16.82-19.52,4.33-.81,7.31-11.91,8.24-15.99l-11.45-15.89,12.24-12.33c6.34,1.23,11.45,12.28,17.79,11.47,1.3-.15,12.12-4.92,12.69-5.83,4.05-6.43-3.51-19.57,7.07-21.1,24.45-3.53,9.83,16.11,18.75,22.54.59.44,9.21,4.28,9.93,4.42,6.12,1.21,13.44-11.35,17.74-11.47,4.58-.13,13.33,9.47,12.07,14.58-2.27,9.27-16.99,9.04-6.49,25.3,5.74,8.9,14.23.57,21.6,6.87ZM423.92,343.12c32.96-2.35,27.04-53.13-5.97-47.69-28.78,4.77-23.06,49.77,5.97,47.69Z"/>
    <path class="cls-1" d="M375.5,396.66l.22,21.06c-5.45,5.59-22.41,1.16-25.97,5.68-1.22,1.53-6.64,15.99-6.2,17.67,2.59,4.64,14.53,14.7,14.1,19.69-.22,2.32-12.69,14.87-15,15.07-7.14.64-14.63-15.55-22.86-14.16-1.24.2-14.83,6.45-15.28,7.17l-2.76,23.53c-1.64,2.3-20.02,2.39-22.47.42-4.33-4.99-.92-21.35-5.18-24.69-1.84-1.43-14.65-6.87-16.6-6.67-14.73,9.52-18.53,23.6-32.99,3.28-7.56-10.62,12.94-17.15,11.4-26.93-.3-1.95-6.04-15.23-7.51-15.97-7.73-1.55-16.3.69-23.43-3.75v-21.06c5.92-5.38,21.34-.24,25.27-5.78,1.04-1.48,6.04-14.61,5.9-16.09l-14.21-19.53c-.13-3.93,12.22-16.19,16.14-16.19,6.07,0,14.45,15.13,21.62,13.98,1.84-.29,15.15-6.38,15.87-7.56l3.73-23.53c2.07-1.66,15.15-1.73,18.19-1.14,9.77,1.9,3.13,21.05,7.46,25.63l17.04,6.84c6.62-1.33,14.46-14.93,20.68-14.38,2.68.25,15.25,12.98,14.97,16.23-.43,4.96-11.67,13.34-13.64,17.69-1.64,3.59,4.72,15.69,6.72,19.53l24.82,3.98ZM309.11,430.27c22.86-20.41,5.07-58.27-26.84-51.68-6.91,1.43-14.72,8.21-18.01,14.38-16.1,30.28,21.5,58.13,44.85,37.31Z"/>
    <path class="cls-1" d="M343.73,210.82c3.19.89,7.73,11.61,7.41,14.75-.59,5.58-11.72,7.61-14.95,11-2.24,2.37-1.29,14.75.03,16.98,1.54,2.59,11.29,4.75,14.1,6.62,6.29,4.22-1.07,13.39-1.97,19.17-7.37,2.75-16.4-6.08-22.49-2.49-1.52.89-8.19,9.52-8.36,11.15-.77,7.29,10.17,15.64,1.77,21.23-14.55,9.73-16.89.91-22.62-11.3l-16.62.42c-2.36,1.44-5.53,12.56-7.66,15.34-2.73,3.56-14.6-.66-17.36-2.84-4.5-3.54,5.2-18.07,1.91-22.94-.75-1.08-10-8.28-11.14-8.4-5.12-.54-12.46,5.85-17.79,5.06-2.91-.82-8.68-12.8-8.06-15.57,1.25-5.48,15.77-7.64,16.29-12.16l-.74-15-17.32-9.94c-.59-2.02,3.71-13.47,5.59-14.85,5.94-4.37,15.32,4.74,20.82,1.51,1.52-.91,9.51-9.44,9.68-11.2-.37-5.22-6.96-13.98-4.62-18.78.75-1.53,10.48-6.8,12.32-7.24,8.18-2,8.06,15.42,16.09,16.39,2.49.3,11.94.35,13.66-.71,7.56-4.64,1-25.11,21.55-13.92,10.74,5.85-3.08,18.19,1.59,24.39.55.74,10.3,8.3,11.1,8.38l17.79-5.04ZM304.58,261.97c12.98-17.4-1.42-40.53-22.26-37.99-8.7,1.06-18.59,10.08-20.07,18.81-4.26,25.55,27.41,39.19,42.32,19.18Z"/>
    <path class="cls-2" d="M282.27,378.59c31.91-6.58,49.7,31.28,26.84,51.68-23.34,20.83-60.95-7.02-44.85-37.31,3.29-6.16,11.1-12.95,18.01-14.38Z"/>
  </g>
</svg>