<?xml version="1.0" encoding="UTF-8"?>
<svg id="_レイヤー_1" data-name="レイヤー 1" xmlns="http://www.w3.org/2000/svg" viewBox="0 0 735.17 854.88">
  <defs>
    <style>
      .cls-1 {
        fill: #92c7cf;
      }

      .cls-2 {
        fill: #fefefd;
      }
    </style>
  </defs>
  <g>
    <path class="cls-1" d="M314.84,107.41c-159.83,12.64-254.06,191.6-178.36,333.42,82.5,154.59,300.27,160.48,392.1,11.52,98.55-159.86-29-359.53-213.74-344.94ZM617.87,697.95c-44.49,3.51-98.29-5.38-141.37-.1-12.75,1.57-22.72,13.36-24.07,25.91-3.56,32.95,4.89,76.49-.4,108.11-1.84,11.1-11.82,18.58-21.21,22.94h-13.3l-280.36-119.86c-8.01-4.51-13.96-11.72-15.51-21.15l-.3-121.57C28.12,513.33-17.3,390.37,6.17,268.81,34.32,122.97,160.68,10.05,308.83,1.82l4.01-1.75h38.22l48.55,7.18c158.4,32.37,270.05,178.41,264.28,340.53,19.25,45.99,45.95,91.08,64.73,136.98,4.84,11.85,9.91,21.29,3.36,34.01-13.26,25.78-78.63,26.53-81.83,63.04-2.51,28.68,3.69,63.92-.08,91.73-2.26,16.71-17.13,23.24-32.19,24.42Z"/>
    <path class="cls-2" d="M314.84,107.41c184.74-14.59,312.3,185.07,213.74,344.94-91.84,148.96-309.61,143.07-392.1-11.52-75.7-141.82,18.53-320.78,178.36-333.42Z"/>
  </g>
  <path class="cls-1" d="M335.91,292.45l5.09-17.27c28.44-73.26,136.43-52.81,137.04,26.36.5,64.19-51.23,116.32-103.98,143.78-5.9,3.07-31.5,15.38-36.37,15.62-4.49.21-15.88-5.12-20.67-7.14-34.66-14.65-71.31-39.96-93.42-70.82-24.75-34.56-41.84-91.18-11.74-127.44,40.29-48.55,117.41-25,124.05,36.91Z"/>
</svg>