<?xml version="1.0" encoding="UTF-8"?>
<svg id="_レイヤー_1" data-name="レイヤー 1" xmlns="http://www.w3.org/2000/svg" viewBox="0 0 739.69 860.14">
  <defs>
    <style>
      .cls-1 {
        fill: #92c7cf;
      }

      .cls-2 {
        fill: #fefefd;
      }
    </style>
  </defs>
  <path class="cls-1" d="M138.02,739.47c-8.06-4.54-14.03-11.79-15.6-21.3l-.3-122.31C28.29,516.49-17.39,392.77,6.2,270.47,34.53,123.71,161.66,10.1,310.72,1.82l4.03-1.75h38.46l48.84,7.21c159.39,32.59,271.73,179.51,265.91,342.62,19.36,46.28,46.24,91.64,65.13,137.82,4.88,11.94,9.97,21.42,3.38,34.23-13.33,25.93-79.11,26.67-82.34,63.43-2.52,28.84,3.71,64.32-.07,92.3-2.29,16.8-17.24,23.36-32.41,24.56-44.75,3.53-98.89-5.39-142.24-.1-12.83,1.58-22.84,13.45-24.21,26.07-3.56,33.16,4.93,76.96-.4,108.79-1.86,11.15-11.89,18.68-21.34,23.08h-13.38l-282.08-120.6ZM133.29,443.54c83.01,155.54,302.13,161.47,394.53,11.57,99.16-160.83-29.18-361.74-215.08-347.04-160.81,12.7-255.61,192.76-179.46,335.47Z"/>
  <path class="cls-2" d="M312.75,108.08c185.9-14.7,314.24,186.21,215.08,347.04-92.4,149.9-311.53,143.97-394.53-11.57-76.15-142.71,18.64-322.77,179.46-335.47ZM355.62,435.01c88.61-27.35,94.19-159.6,63.12-231.16-2.44-5.61-7.17-17.6-14.33-17.32-7.89.3-34.88,16.73-44.56,20.91-33.21,14.39-70.7,19.47-99.39,42.93-29.23,23.9-48.21,63.32-46.09,101.65,1.57,28.42,14.77,39.46-10.77,62.95-5.67,5.22-21.12,13.94-24.06,19.48-5.79,10.9,4.11,23.95,15.45,17.2,40.85-36.13,79.8-74.51,114.71-116.55,15.03-18.11,29.05-40.67,44.51-57.75,1.69-1.86,2.46-4.22,5.69-3.51,6.07,7.09-21,51.89-26.37,60-9.3,14.09-20.33,27.98-31.29,40.8-13.51,15.81-33.48,31.73-45.2,46.98-4.7,6.1-6.66,8.57,2.16,11.32,26.7,8.38,69.76,10.26,96.42,2.05Z"/>
  <path class="cls-1" d="M418.74,203.85c31.07,71.55,25.48,203.81-63.12,231.16-26.65,8.21-69.71,6.33-96.42-2.05-8.81-2.75-6.86-5.22-2.16-11.32,11.72-15.25,31.69-31.17,45.2-46.98,10.95-12.82,21.99-26.71,31.29-40.8,5.37-8.11,32.44-52.91,26.37-60-3.23-.71-4,1.65-5.69,3.51-15.47,17.08-29.48,39.64-44.51,57.75-34.92,42.04-73.86,80.42-114.71,116.55-11.34,6.75-21.24-6.3-15.45-17.2,2.94-5.54,18.39-14.26,24.06-19.48,25.53-23.5,12.34-34.53,10.77-62.95-2.12-38.33,16.86-77.75,46.09-101.65,28.69-23.47,66.18-28.54,99.39-42.93,9.68-4.18,36.67-20.61,44.56-20.91,7.16-.29,11.89,11.71,14.33,17.32Z"/>
</svg>