<?xml version="1.0" encoding="UTF-8"?>
<svg id="_レイヤー_1" data-name=" レイヤー 1" xmlns="http://www.w3.org/2000/svg" viewBox="0 0 141.75 141.75">
  <defs>
    <style>
      .cls-1 {
        fill: #92c7cf;
      }

      .cls-2 {
        fill: #fcfdfd;
      }
    </style>
  </defs>
  <circle class="cls-1" cx="70.87" cy="70.88" r="70.87"/>
  <g>
    <path class="cls-2" d="M105.07,54.67h-3.75v23.2h3.75c2.54,0,4.6-2.06,4.6-4.6v-13.99c0-2.54-2.06-4.6-4.6-4.6Z"/>
    <path class="cls-2" d="M106.45,97.58c0-2.76-1.13-5.27-2.93-7.08-1.8-1.81-4.32-2.93-7.08-2.93-2.76,0-5.28,1.13-7.08,2.93-1.81,1.81-2.93,4.32-2.93,7.08v3.52h-3.23v13.88c0,3.54,2.87,6.41,6.41,6.41h13.67c3.54,0,6.41-2.87,6.41-6.41v-13.88h-3.23v-3.52h0ZM91.28,97.58c0-.72.14-1.39.4-2,.39-.92,1.05-1.71,1.87-2.27.83-.56,1.8-.88,2.88-.88.72,0,1.39.14,2,.4.92.39,1.71,1.05,2.27,1.87.56.83.88,1.8.88,2.88v3.52h-10.3v-3.52ZM96.44,113.49c-1.83,0-3.31-1.48-3.31-3.31s1.48-3.31,3.31-3.31,3.31,1.48,3.31,3.31c0,1.83-1.48,3.31-3.31,3.31Z"/>
    <path class="cls-2" d="M103.1,28.37h-61.86c-3.63,0-6.58,2.94-6.58,6.58v73.46c0,3.63,2.94,6.58,6.58,6.58h38.24v-17.6h3.19l.11-1.12c.12-1.23.39-2.42.82-3.55-.69.97-1.69,1.59-2.92,1.59h-26.87c-3.55,0-5.16-5.17-3.11-8.82,1.55-2.75,4.08-5.87,8.22-7.65,2.36,1.65,5.23,2.62,8.33,2.62s5.96-.97,8.33-2.62c4.13,1.77,6.67,4.89,8.22,7.65.96,1.71,1.11,3.74.65,5.43.62-1.1,1.38-2.13,2.31-3.05,2.59-2.59,6.03-4.02,9.7-4.02.56,0,1.1.04,1.65.11v-32.39h7c2.54,0,4.6-2.06,4.6-4.6v-12.02c0-3.63-2.94-6.58-6.58-6.58ZM78.22,66.04c0,6.07-4.92,10.99-10.98,10.99s-10.99-4.92-10.99-10.99v-2.63c0-6.07,4.92-10.99,10.99-10.99s10.98,4.92,10.98,10.99v2.63Z"/>
  </g>
</svg>