<?xml version="1.0" encoding="UTF-8"?>
<svg id="_レイヤー_1" data-name=" レイヤー 1" xmlns="http://www.w3.org/2000/svg" viewBox="0 0 141.75 141.75">
  <defs>
    <style>
      .cls-1 {
        fill: #92c7cf;
      }

      .cls-2 {
        fill: #fcfdfd;
      }
    </style>
  </defs>
  <circle class="cls-1" cx="70.88" cy="70.88" r="70.87"/>
  <g>
    <path class="cls-2" d="M46.35,46.67c3.82,0,6.92-3.1,6.92-6.92s-3.1-6.92-6.92-6.92-6.92,3.1-6.92,6.92,3.1,6.92,6.92,6.92Z"/>
    <path class="cls-2" d="M65.75,33.3h45.06v36.67h-45.06v-3.06c-.59,0-1.18-.06-1.76-.17l-.19-.03-1.9-.53v7.64h52.75V29.45h-52.76v18.43l3.85,1.35v-15.93Z"/>
    <path class="cls-2" d="M66.91,90.46c0,3.82,3.1,6.92,6.92,6.92s6.92-3.1,6.92-6.92-3.1-6.92-6.92-6.92-6.92,3.1-6.92,6.92Z"/>
    <path class="cls-2" d="M73.83,100.84c-6.49,0-12.25,2.16-13.69,9.36l.12,4.76h27.15l.11-4.76c-1.44-7.19-7.2-9.36-13.69-9.36Z"/>
    <path class="cls-2" d="M95.78,90.46c0,3.82,3.1,6.92,6.92,6.92s6.92-3.1,6.92-6.92-3.1-6.92-6.92-6.92-6.92,3.1-6.92,6.92Z"/>
    <path class="cls-2" d="M102.7,100.84c-6.49,0-12.25,2.16-13.69,9.36l.12,4.76h27.15l.12-4.76c-1.44-7.19-7.2-9.36-13.69-9.36Z"/>
    <path class="cls-2" d="M69.06,61.86l11.16-5.34c1.51-.64,2.21-2.37,1.57-3.88-.64-1.51-2.37-2.21-3.88-1.57l-10.04,3.43-9.08-3.18c-1.32-.46-2.7-.76-4.09-.9l-6.12,9.44v-5.05h-3.73v5.09l-6.86-8.28c-3.69,1.52-6.48,4.41-7.48,9.39l-5.08,21.22c-.36,1.6.65,3.18,2.25,3.54,1.6.36,3.18-.65,3.53-2.25l5.35-14.14,1.38,42.07c0,1.94,1.57,3.51,3.51,3.51s3.51-1.57,3.51-3.51l1.4-25.09,1.39,25.09c0,1.94,1.57,3.51,3.51,3.51s3.51-1.57,3.51-3.51l1.97-51.12,8.01,2.22c1.47.27,2.99.02,4.3-.69Z"/>
    <rect class="cls-2" x="44.85" y="50.55" width="3.73" height="2.62"/>
  </g>
</svg>