<?xml version="1.0" encoding="UTF-8"?>
<svg id="_レイヤー_1" data-name="レイヤー 1" xmlns="http://www.w3.org/2000/svg" viewBox="0 0 141.75 141.75">
  <defs>
    <style>
      .cls-1 {
        fill: #8fc1c8;
      }
    </style>
  </defs>
  <path class="cls-1" d="M70.88,0C31.73,0,0,31.73,0,70.88s31.73,70.88,70.88,70.88,70.88-31.73,70.88-70.88S110.02,0,70.88,0ZM76.1,100.24c-1.65.74-4.98,2.02-4.98,2.02-.08.03-.16.05-.24.05s-.16-.02-.24-.05c0,0-3.33-1.28-4.98-2.02-26.11-11.55-30.48-29.24-30.48-38.52,0-9.85,7.99-17.85,17.85-17.85s17.85,7.99,17.85,17.85c0-9.85,7.99-17.85,17.84-17.85s17.85,7.99,17.85,17.85c0,9.27-4.36,26.97-30.47,38.52Z"/>
</svg>