<?xml version="1.0" encoding="UTF-8"?>
<svg id="_レイヤー_1" data-name=" レイヤー 1" xmlns="http://www.w3.org/2000/svg" viewBox="0 0 138.41 138.41">
  <defs>
    <style>
      .cls-1 {
        fill: #92c7cf;
      }

      .cls-2 {
        stroke: #fcfdfd;
        stroke-miterlimit: 10;
        stroke-width: .79px;
      }

      .cls-2, .cls-3 {
        fill: #fcfdfd;
      }
    </style>
  </defs>
  <circle class="cls-1" cx="69.21" cy="69.21" r="69.21"/>
  <path class="cls-3" d="M99.92,26.8c-4.23,0-7.66,4.23-7.66,9.01,0,2.91,1.37,5.47,3.04,7.07,1.47,1.4,2.37,2.48,2.55,4.83v15.45c0,1.07.87,1.94,1.94,1.94h.26c1.07,0,1.94-.87,1.94-1.94v-15.45c.18-2.34,1.08-3.42,2.55-4.83,1.67-1.6,3.04-4.16,3.04-7.07,0-4.78-3.43-9.01-7.66-9.01Z"/>
  <path class="cls-3" d="M86.21,28.64v8.18c0,.52-.42.95-.95.95h-.25c-.52,0-.95-.42-.95-.95v-8.22c0-1.35-.91-1.75-1.78-1.75s-1.78.4-1.78,1.75v8.22c0,.52-.42.95-.95.95h-.25c-.52,0-.95-.42-.95-.95v-8.18c0-2.41-3.44-2.33-3.44.03v7.81c-.02,4.34,1.02,5.46,2.73,6.82,1.38,1.09,2.56,1.71,2.56,4.42v15.45c0,1.07.87,1.94,1.94,1.94h.26c1.07,0,1.94-.87,1.94-1.94v-15.45c0-2.7,1.18-3.33,2.56-4.42,1.71-1.35,2.75-2.48,2.73-6.82v-7.81c0-2.36-3.44-2.44-3.44-.03Z"/>
  <path class="cls-2" d="M71.21,75.2c2.59,0,4.68-2.1,4.68-4.68s-2.1-4.68-4.68-4.68-4.68,2.1-4.68,4.68c0,2.59,2.1,4.68,4.68,4.68Z"/>
  <path class="cls-2" d="M83.94,89.18l-5.36-2.82-2.26-4.64c-1.14-2.34-3.32-4-5.89-4.48l-2.33-.43c-1.17-.22-2.38-.06-3.45.45l-6.77,3.2c-.75.35-1.35.97-1.67,1.74l-3.01,7.03c-.19.45-.2.95-.01,1.4.18.45.54.81.99.99l.07.03c.9.37,1.93-.04,2.33-.92l2.76-5.99,4.38-1.41-4.34,19.27-4.22,10.53c-.23.58-.21,1.24.07,1.8.28.56.78.98,1.39,1.15l.18.05c.97.27,2-.15,2.51-1.02l5-8.64,2.98-5.92,5.44,6.01,4.02,8.52c.45.96,1.53,1.46,2.55,1.2h.05c.6-.17,1.1-.56,1.39-1.11.29-.54.34-1.18.14-1.77l-2.96-8.57c-.42-1.21-1.03-2.33-1.82-3.33l-4.8-6.35,1.76-9.16,2.27,2.89c.28.36.64.64,1.06.83l5.98,2.7c.43.2.93.21,1.37.03.44-.17.79-.52.98-.96l.02-.05c.35-.84,0-1.81-.8-2.23Z"/>
  <path class="cls-3" d="M36.95,25.81c5.78.11,8.6,4.2,9.23,7.92.63-3.72,3.45-7.81,9.23-7.92,5.33-.1,9.73,3.99,9.73,11.47,0,9.6-10.86,14.03-18.28,21.2-.26.25-.2.24-.2.24-.12.15-.3.24-.48.24h0s0,0,0,0h0c-.18,0-.36-.09-.48-.24,0,0,.06,0-.2-.24-7.42-7.17-18.28-11.6-18.28-21.2,0-7.48,4.4-11.57,9.73-11.47Z"/>
</svg>