<?xml version="1.0" encoding="UTF-8"?>
<svg id="_レイヤー_1" data-name=" レイヤー 1" xmlns="http://www.w3.org/2000/svg" viewBox="0 0 141.75 141.75">
  <defs>
    <style>
      .cls-1 {
        fill: #92c7cf;
      }

      .cls-2 {
        fill: #fcfdfd;
      }
    </style>
  </defs>
  <circle class="cls-1" cx="70.88" cy="70.88" r="70.87"/>
  <g>
    <g>
      <path class="cls-2" d="M33.44,108.6h36.9c1.59,0,2.88-1.29,2.88-2.88v-23.92c0-1.59-1.29-2.88-2.88-2.88h-36.9c-1.59,0-2.88,1.29-2.88,2.88v23.92c0,1.59,1.29,2.88,2.88,2.88ZM35.37,83.49h33.05v20.53h-33.05v-20.53Z"/>
      <path class="cls-2" d="M27.18,111.55v2.09c0,1.34,1.09,2.43,2.43,2.43h44.57c1.34,0,2.43-1.09,2.43-2.43v-2.09H27.18Z"/>
    </g>
    <polygon class="cls-2" points="96.68 24.49 91.49 19.3 71.37 39.41 51.26 19.3 46.07 24.49 66.18 44.6 46.07 64.72 51.26 69.91 71.37 49.8 91.49 69.91 96.68 64.72 76.57 44.6 96.68 24.49"/>
    <path class="cls-2" d="M103.26,78.29h-15.57c-2.45,0-4.44,1.99-4.44,4.44v26.69c0,3.93,3.18,7.11,7.11,7.11h10.23c3.93,0,7.11-3.18,7.11-7.11v-26.69c0-2.45-1.99-4.44-4.44-4.44ZM95.48,114.24c-.61,0-1.1-.49-1.1-1.1s.49-1.1,1.1-1.1,1.1.49,1.1,1.1-.49,1.1-1.1,1.1ZM92.65,79.96h5.64c.32,0,.57.26.57.57s-.26.57-.57.57h-5.64c-.32,0-.57-.26-.57-.57,0-.32.26-.57.57-.57ZM85.76,109.43v-25.81h19.44v25.81c0,.29-.03.57-.08.84h-19.28c-.05-.27-.08-.55-.08-.84Z"/>
  </g>
</svg>