<?xml version="1.0" encoding="UTF-8"?>
<svg id="_レイヤー_1" data-name=" レイヤー 1" xmlns="http://www.w3.org/2000/svg" viewBox="0 0 141.75 141.75">
  <defs>
    <style>
      .cls-1 {
        fill: #92c7cf;
      }

      .cls-2 {
        fill: #fcfdfd;
      }
    </style>
  </defs>
  <circle class="cls-1" cx="70.87" cy="70.88" r="70.87"/>
  <g>
    <path class="cls-2" d="M89.74,104h31.13c0-6.87-3.62-11.96-8.86-14.27v-2.64c2.71-1.71,4.88-4.31,6.03-7.57l1.36-3.85c2.72-7.7-1.33-16.15-9.03-18.86-7.42-2.61-15.52,1.04-18.53,8.19l-4.74,3.24c-.18.15-.27.39-.25.62.02.24.15.45.36.57l2.43,1.73c-.25.7-.41,1.16-.41,1.16l10.54,7.41-7.57,3.63c1.7,2.31,4.08,4.15,6.99,5.18.23.08.45.15.68.22v.47c-5.9,2.01-10.11,7.35-10.11,14.75Z"/>
    <path class="cls-2" d="M53.76,103.07H20.88c0-7.25,3.83-12.63,9.36-15.07v-2.79c-2.86-1.81-5.15-4.55-6.36-7.99l-1.43-4.06c-2.87-8.13,1.4-17.05,9.54-19.92,7.83-2.76,16.39,1.09,19.57,8.65l5,3.43c.19.16.29.41.27.66-.02.25-.16.47-.38.6l-2.56,1.83c.26.74.43,1.23.43,1.23l-11.13,7.83,8,3.83c-1.79,2.44-4.31,4.39-7.39,5.47-.24.08-.48.16-.72.23v.5c6.24,2.13,10.68,7.76,10.68,15.58Z"/>
    <path class="cls-2" d="M67.46,37.75c-7.47,0-12.54,3.81-12.54,9.74,0,3.65,1.52,6.57,4.44,8.45.2.13.43.14.34.51-.35,1.46-.96,4.06-.96,4.06-.03.11.02.23.11.29.09.07.21.08.31.02,0,0,4.29-2.54,4.86-2.86,1.33-.76,2.48-.91,3.34-.91,5.93,0,12.53-2.37,12.53-9.63,0-5.63-4.54-9.67-12.43-9.67Z"/>
    <path class="cls-2" d="M74.98,61.09c6.21,0,10.43,3.17,10.43,8.1,0,3.03-1.26,5.46-3.7,7.03-.16.1-.35.12-.28.42.29,1.21.8,3.38.8,3.38.02.09-.01.19-.09.24-.07.06-.18.07-.26.02,0,0-3.56-2.11-4.04-2.38-1.11-.63-2.06-.76-2.78-.76-4.93,0-10.42-1.97-10.42-8.01,0-4.68,3.77-8.04,10.34-8.04Z"/>
  </g>
</svg>