<?xml version="1.0" encoding="UTF-8"?>
<svg id="_レイヤー_1" data-name=" レイヤー 1" xmlns="http://www.w3.org/2000/svg" viewBox="0 0 141.75 141.75">
  <defs>
    <style>
      .cls-1 {
        fill: #92c7cf;
      }

      .cls-2 {
        fill: #fcfdfd;
      }
    </style>
  </defs>
  <circle class="cls-1" cx="70.87" cy="70.88" r="70.87"/>
  <g>
    <path class="cls-2" d="M113.44,67.26c-.85-.94-1.89-1.67-3.05-2.14-1.16-.49-2.43-.74-3.76-.74s-2.54.24-3.76.64c-1.2.42-2.38,1-3.39,1.78l-.11.07-.04.02-.09.09c-.11.09-.33.25-.62.45-.45.34-1.09.78-1.83,1.31-2.98-10.59-10.54-16.05-22.22-16.53.21-3.66.83-7.15,2.43-7.89,4.98-2.3,14.16-1.91,20.28-7.27,6.12-5.36-3.82-14.54-16.07-5.36-6.76,5.07-8.97,13.75-9.59,20.52-11.87.51-17.62,8.07-19.74,12.9-.27.05-.53.11-.78.16-3.67.87-6.5,2.29-8.78,3.9-2.29,1.61-4.03,3.41-5.57,4.97-.31.33-.62.65-.94.96l-7.8,6.82c-1.47,1.31-2.32,3.16-2.32,5.13v23.01c0,2.03,1.2,3.9,3.05,4.73.69.31,1.41.47,2.18.47,1.25,0,2.47-.45,3.39-1.27l14.55-12.46,22.91,4.16c.62.11,1.27.18,1.91.18,2.23,0,4.37-.69,6.19-1.96,1.62-1.13,9.24-6.44,16.77-11.72,3.79-2.65,7.55-5.28,10.5-7.38,1.47-1.05,2.74-1.96,3.72-2.69.51-.35.92-.65,1.25-.91.34-.25.58-.44.76-.6v.02l.06-.05.04-.02.07-.07c.96-.89,1.71-1.9,2.23-3.03.53-1.13.8-2.36.81-3.59v-.13c0-2.36-.94-4.64-2.63-6.48ZM110.03,77.22c-2.25,1.87-32.71,23.04-32.71,23.04-1.4.98-3.1,1.36-4.77,1.07l-23.86-4.34c-.71-.13-1.42.05-1.96.53l-15.31,13.12c-.24.2-.56.26-.85.13-.27-.13-.45-.42-.45-.71v-23.01c0-.69.29-1.34.81-1.78l7.91-6.93c3.08-3.08,5.95-6.57,11.75-8.36,2.43-.74,5.37-1.2,9.05-1.2h19.96c2.76,0,4.99,2.23,4.99,4.99s-2.23,4.99-4.99,4.99h-13.71l.05.04c-.98-.04-1.8.73-1.83,1.71-.04.98.73,1.81,1.7,1.83l.07-.02h18.62s8.02-5.26,13.3-8.89c2.03-1.38,3.66-2.54,4.28-3.05,2.45-1.83,6.13-2.29,8.09-.13,1.98,2.14,2,4.99-.15,6.97Z"/>
    <path class="cls-2" d="M57.11,40.48c5.87,1.47,10.72,1.53,13.77,5.74,0,0,1.15-4.21,1.92-6.12,0,0-6.87-13.45-16.45-13.01-8.42.38-8.42,11.1.76,13.39Z"/>
  </g>
</svg>