<?xml version="1.0" encoding="UTF-8"?>
<svg id="_レイヤー_1" xmlns="http://www.w3.org/2000/svg" version="1.1" viewBox="0 0 100.02 131.17">
  <!-- Generator: Adobe Illustrator 30.1.0, SVG Export Plug-In . SVG Version: 2.1.1 Build 136)  -->
  <defs>
    <style>
      .st0 {
        fill: none;
        stroke: #92c7cf;
        stroke-linecap: round;
        stroke-linejoin: round;
        stroke-width: 3px;
      }

      .st1 {
        fill: #92c7cf;
        font-family: TsukuARdGothic-Bold-83pv-RKSJ-H, 'Tsukushi A Round Gothic';
        font-size: 23.68px;
        font-weight: 700;
        letter-spacing: .01em;
      }
    </style>
  </defs>
  <g>
    <line class="st0" x1="2.36" y1="34.89" x2="16.7" y2="42.43"/>
    <line class="st0" x1="98.02" y1="33.14" x2="84.5" y2="42.06"/>
    <line class="st0" x1="20.31" y1="13.73" x2="32.81" y2="29.98"/>
    <line class="st0" x1="49.78" y1="1.14" x2="50.49" y2="25.72"/>
    <line class="st0" x1="79.24" y1="13.73" x2="69.28" y2="30.34"/>
    <path class="st0" d="M9.8,51.45v31.84c14.67-1.77,28.27,2.06,40.34,13.8,11.62-13.63,25.33-16.92,40.34-13.8l2.12-32.91c-16.03-1.82-30.49,1.15-42.46,11.68-.26-.21-.51-.41-.77-.62-12.49-9.85-24.88-13.75-39.56-10Z"/>
    <path class="st0" d="M50.14,97.1v-35.03"/>
  </g>
  <text class="st1" transform="translate(3.59 124.15)"><tspan x="0" y="0">QoMirai</tspan></text>
</svg>