<?xml version="1.0" encoding="UTF-8"?>
<svg id="_レイヤー_1" xmlns="http://www.w3.org/2000/svg" version="1.1" viewBox="0 0 100.02 131.17">
  <!-- Generator: Adobe Illustrator 30.1.0, SVG Export Plug-In . SVG Version: 2.1.1 Build 136)  -->
  <defs>
    <style>
      .st0 {
        fill: #fcfeff;
        font-family: TsukuARdGothic-Bold-83pv-RKSJ-H, 'Tsukushi A Round Gothic';
        font-size: 22.82px;
        font-weight: 700;
        letter-spacing: 0em;
      }

      .st1 {
        fill: none;
        stroke: #fcfeff;
        stroke-linecap: round;
        stroke-linejoin: round;
        stroke-width: 3px;
      }
    </style>
  </defs>
  <g>
    <line class="st1" x1="3.91" y1="35.9" x2="17.73" y2="43.16"/>
    <line class="st1" x1="96.11" y1="34.21" x2="83.08" y2="42.81"/>
    <line class="st1" x1="21.21" y1="15.5" x2="33.26" y2="31.16"/>
    <line class="st1" x1="49.61" y1="3.36" x2="50.3" y2="27.06"/>
    <line class="st1" x1="78.01" y1="15.5" x2="68.41" y2="31.51"/>
    <path class="st1" d="M11.08,51.86v30.69c14.14-1.71,27.24,1.99,38.87,13.3,11.19-13.14,24.41-16.31,38.87-13.3l2.05-31.71c-15.45-1.75-29.38,1.11-40.92,11.25-.25-.2-.5-.4-.74-.59-12.03-9.5-23.97-13.25-38.13-9.64Z"/>
    <path class="st1" d="M49.96,95.85v-33.76"/>
  </g>
  <text class="st0" transform="translate(5.09 121.92)"><tspan x="0" y="0">QoMirai</tspan></text>
</svg>